<svg width="360" height="640" viewBox="0 0 360 640" fill="none" xmlns="http://www.w3.org/2000/svg">
<rect width="360" height="640" fill="white"/>
<path d="M30.5244 346.245V351H28.3008V338.203H33.1963C34.626 338.203 35.7598 338.575 36.5977 339.319C37.4414 340.063 37.8633 341.048 37.8633 342.272C37.8633 343.526 37.4502 344.502 36.624 345.199C35.8037 345.896 34.6523 346.245 33.1699 346.245H30.5244ZM30.5244 344.461H33.1963C33.9873 344.461 34.5908 344.276 35.0068 343.907C35.4229 343.532 35.6309 342.993 35.6309 342.29C35.6309 341.599 35.4199 341.048 34.998 340.638C34.5762 340.222 33.9961 340.008 33.2578 339.996H30.5244V344.461ZM45.7731 348.021H40.8161L39.7789 351H37.4674L42.3014 338.203H44.2965L49.1393 351H46.819L45.7731 348.021ZM41.4401 346.228H45.1491L43.2946 340.919L41.4401 346.228ZM60.5735 349.339C60.1106 349.942 59.469 350.399 58.6487 350.71C57.8284 351.021 56.8968 351.176 55.8538 351.176C54.7815 351.176 53.8323 350.933 53.0061 350.446C52.18 349.96 51.5413 349.266 51.0901 348.363C50.6448 347.455 50.4134 346.397 50.3958 345.19V344.188C50.3958 342.255 50.8587 340.746 51.7845 339.662C52.7102 338.572 54.0022 338.027 55.6604 338.027C57.0843 338.027 58.2151 338.379 59.053 339.082C59.8909 339.785 60.3948 340.799 60.5647 342.123H58.385C58.1389 340.582 57.2454 339.812 55.7044 339.812C54.7083 339.812 53.9495 340.172 53.428 340.893C52.9124 341.607 52.6458 342.659 52.6282 344.048V345.032C52.6282 346.415 52.9182 347.49 53.4983 348.258C54.0843 349.02 54.8958 349.4 55.9329 349.4C57.0696 349.4 57.8782 349.143 58.3587 348.627V346.122H55.722V344.435H60.5735V349.339ZM70.54 348.021H65.5829L64.5458 351H62.2343L67.0683 338.203H69.0634L73.9062 351H71.5859L70.54 348.021ZM66.207 346.228H69.9159L68.0614 340.919L66.207 346.228ZM78.608 338.203L82.2994 348.012L85.982 338.203H88.856V351H86.6412V346.781L86.8609 341.139L83.0816 351H81.4908L77.7203 341.147L77.94 346.781V351H75.7252V338.203H78.608ZM99.3322 345.287H94.0764V349.225H100.22V351H91.8527V338.203H100.158V339.996H94.0764V343.529H99.3322V345.287ZM112.542 351H110.318L104.614 341.921V351H102.39V338.203H104.614L110.336 347.317V338.203H112.542V351ZM124.512 339.996H120.522V351H118.316V339.996H114.361V338.203H124.512V339.996ZM136.526 344.936C136.526 346.189 136.31 347.291 135.876 348.24C135.442 349.184 134.821 349.91 134.013 350.42C133.21 350.924 132.284 351.176 131.235 351.176C130.198 351.176 129.273 350.924 128.458 350.42C127.65 349.91 127.023 349.187 126.577 348.249C126.138 347.312 125.915 346.23 125.909 345.006V344.285C125.909 343.037 126.129 341.936 126.568 340.98C127.014 340.025 127.638 339.296 128.441 338.792C129.249 338.282 130.175 338.027 131.218 338.027C132.261 338.027 133.184 338.279 133.986 338.783C134.795 339.281 135.419 340.002 135.859 340.945C136.298 341.883 136.521 342.976 136.526 344.224V344.936ZM134.303 344.268C134.303 342.85 134.033 341.763 133.494 341.007C132.961 340.251 132.202 339.873 131.218 339.873C130.257 339.873 129.504 340.251 128.959 341.007C128.42 341.757 128.145 342.82 128.133 344.197V344.936C128.133 346.342 128.405 347.429 128.95 348.196C129.501 348.964 130.263 349.348 131.235 349.348C132.22 349.348 132.976 348.973 133.503 348.223C134.036 347.473 134.303 346.377 134.303 344.936V344.268Z" fill="black"/>
<path d="M36.6064 374.76C36.5062 375.822 36.1143 376.651 35.4307 377.248C34.7471 377.84 33.8379 378.137 32.7031 378.137C31.9102 378.137 31.2106 377.95 30.6045 377.576C30.0029 377.198 29.5381 376.662 29.21 375.97C28.8818 375.277 28.7109 374.473 28.6973 373.557V372.627C28.6973 371.688 28.8636 370.861 29.1963 370.146C29.529 369.43 30.0052 368.879 30.625 368.491C31.2493 368.104 31.9694 367.91 32.7852 367.91C33.8835 367.91 34.7676 368.209 35.4375 368.806C36.1074 369.403 36.4971 370.246 36.6064 371.335H34.8838C34.8018 370.619 34.5921 370.104 34.2549 369.79C33.9222 369.471 33.4323 369.312 32.7852 369.312C32.0332 369.312 31.4544 369.587 31.0488 370.139C30.6478 370.686 30.4427 371.49 30.4336 372.552V373.434C30.4336 374.509 30.625 375.329 31.0078 375.895C31.3952 376.46 31.9603 376.742 32.7031 376.742C33.3822 376.742 33.8926 376.59 34.2344 376.284C34.5762 375.979 34.7926 375.471 34.8838 374.76H36.6064ZM44.0095 375.683H40.154L39.3474 378H37.5495L41.3093 368.047H42.8611L46.6277 378H44.823L44.0095 375.683ZM40.6394 374.288H43.5241L42.0818 370.159L40.6394 374.288ZM51.6996 374.165H49.7719V378H48.0424V368.047H51.5424C52.6909 368.047 53.5773 368.304 54.2016 368.819C54.8259 369.334 55.1381 370.079 55.1381 371.055C55.1381 371.72 54.9763 372.278 54.6528 372.729C54.3338 373.176 53.8871 373.52 53.3129 373.762L55.5483 377.911V378H53.6957L51.6996 374.165ZM49.7719 372.777H51.5493C52.1326 372.777 52.5883 372.632 52.9164 372.34C53.2446 372.044 53.4086 371.64 53.4086 371.13C53.4086 370.597 53.256 370.184 52.9506 369.893C52.6498 369.601 52.1987 369.451 51.5971 369.441H49.7719V372.777ZM63.9084 369.441H60.8048V378H59.089V369.441H56.0129V368.047H63.9084V369.441ZM70.2518 375.683H66.3964L65.5897 378H63.7919L67.5516 368.047H69.1034L72.87 378H71.0653L70.2518 375.683ZM66.8817 374.288H69.7665L68.3241 370.159L66.8817 374.288ZM70.8602 365.531C70.8602 366.033 70.7144 366.45 70.4227 366.782C70.1356 367.115 69.7733 367.281 69.3358 367.281C69.1581 367.281 69.0031 367.263 68.871 367.227C68.7434 367.186 68.5588 367.097 68.3173 366.96C68.0803 366.823 67.9117 366.741 67.8114 366.714C67.7157 366.687 67.6086 366.673 67.4901 366.673C67.3169 366.673 67.1688 366.739 67.0458 366.871C66.9273 366.999 66.868 367.167 66.868 367.377L65.8495 367.322C65.8495 366.821 65.993 366.399 66.2802 366.058C66.5718 365.716 66.9341 365.545 67.3671 365.545C67.6268 365.545 67.939 365.647 68.3036 365.853C68.6727 366.058 68.9758 366.16 69.2128 366.16C69.3859 366.16 69.5341 366.096 69.6571 365.969C69.7802 365.837 69.8417 365.663 69.8417 365.449L70.8602 365.531ZM82.0777 373.283C82.0777 374.258 81.9091 375.115 81.5719 375.854C81.2346 376.587 80.7516 377.152 80.1227 377.549C79.4983 377.941 78.7783 378.137 77.9625 378.137C77.1559 378.137 76.4358 377.941 75.8023 377.549C75.1734 377.152 74.6858 376.59 74.3395 375.86C73.9977 375.131 73.8245 374.29 73.8199 373.338V372.777C73.8199 371.807 73.9908 370.95 74.3326 370.207C74.679 369.464 75.1643 368.897 75.7887 368.505C76.4176 368.108 77.1376 367.91 77.9488 367.91C78.76 367.91 79.4778 368.106 80.1021 368.498C80.7311 368.885 81.2164 369.446 81.5582 370.18C81.9 370.909 82.0732 371.759 82.0777 372.729V373.283ZM80.3482 372.764C80.3482 371.661 80.1386 370.815 79.7193 370.228C79.3046 369.64 78.7145 369.346 77.9488 369.346C77.2014 369.346 76.6158 369.64 76.192 370.228C75.7727 370.811 75.5585 371.638 75.5494 372.709V373.283C75.5494 374.377 75.7613 375.222 76.1852 375.819C76.6135 376.416 77.206 376.715 77.9625 376.715C78.7281 376.715 79.316 376.423 79.7262 375.84C80.1409 375.257 80.3482 374.404 80.3482 373.283V372.764ZM91.2715 371.643L93.3633 368.047H95.3594L92.3516 372.982L95.4278 378H93.4112L91.2715 374.35L89.125 378H87.1153L90.1983 372.982L87.1836 368.047H89.1797L91.2715 371.643ZM104.403 374.76C104.303 375.822 103.911 376.651 103.227 377.248C102.544 377.84 101.635 378.137 100.5 378.137C99.7068 378.137 99.0073 377.95 98.4011 377.576C97.7996 377.198 97.3347 376.662 97.0066 375.97C96.6785 375.277 96.5076 374.473 96.4939 373.557V372.627C96.4939 371.688 96.6602 370.861 96.9929 370.146C97.3256 369.43 97.8018 368.879 98.4216 368.491C99.046 368.104 99.766 367.91 100.582 367.91C101.68 367.91 102.564 368.209 103.234 368.806C103.904 369.403 104.294 370.246 104.403 371.335H102.68C102.598 370.619 102.389 370.104 102.052 369.79C101.719 369.471 101.229 369.312 100.582 369.312C99.8298 369.312 99.2511 369.587 98.8455 370.139C98.4444 370.686 98.2393 371.49 98.2302 372.552V373.434C98.2302 374.509 98.4216 375.329 98.8045 375.895C99.1918 376.46 99.7569 376.742 100.5 376.742C101.179 376.742 101.689 376.59 102.031 376.284C102.373 375.979 102.589 375.471 102.68 374.76H104.403ZM111.806 375.683H107.951L107.144 378H105.346L109.106 368.047H110.658L114.424 378H112.62L111.806 375.683ZM108.436 374.288H111.321L109.878 370.159L108.436 374.288ZM119.496 374.165H117.569V378H115.839V368.047H119.339C120.488 368.047 121.374 368.304 121.998 368.819C122.623 369.334 122.935 370.079 122.935 371.055C122.935 371.72 122.773 372.278 122.449 372.729C122.13 373.176 121.684 373.52 121.11 373.762L123.345 377.911V378H121.492L119.496 374.165ZM117.569 372.777H119.346C119.929 372.777 120.385 372.632 120.713 372.34C121.041 372.044 121.205 371.64 121.205 371.13C121.205 370.597 121.053 370.184 120.747 369.893C120.446 369.601 119.995 369.451 119.394 369.441H117.569V372.777ZM124.855 378V368.047H127.795C128.674 368.047 129.454 368.243 130.133 368.635C130.816 369.027 131.345 369.583 131.719 370.303C132.092 371.023 132.279 371.848 132.279 372.777V373.276C132.279 374.22 132.09 375.049 131.712 375.765C131.338 376.48 130.803 377.032 130.105 377.419C129.413 377.806 128.617 378 127.72 378H124.855ZM126.585 369.441V376.619H127.713C128.62 376.619 129.315 376.337 129.798 375.771C130.285 375.202 130.534 374.386 130.543 373.324V372.771C130.543 371.69 130.308 370.866 129.839 370.296C129.369 369.726 128.688 369.441 127.795 369.441H126.585Z" fill="black"/>
<path d="M36.6064 395.76C36.5062 396.822 36.1143 397.651 35.4307 398.248C34.7471 398.84 33.8379 399.137 32.7031 399.137C31.9102 399.137 31.2106 398.95 30.6045 398.576C30.0029 398.198 29.5381 397.662 29.21 396.97C28.8818 396.277 28.7109 395.473 28.6973 394.557V393.627C28.6973 392.688 28.8636 391.861 29.1963 391.146C29.529 390.43 30.0052 389.879 30.625 389.491C31.2493 389.104 31.9694 388.91 32.7852 388.91C33.8835 388.91 34.7676 389.209 35.4375 389.806C36.1074 390.403 36.4971 391.246 36.6064 392.335H34.8838C34.8018 391.619 34.5921 391.104 34.2549 390.79C33.9222 390.471 33.4323 390.312 32.7852 390.312C32.0332 390.312 31.4544 390.587 31.0488 391.139C30.6478 391.686 30.4427 392.49 30.4336 393.552V394.434C30.4336 395.509 30.625 396.329 31.0078 396.895C31.3952 397.46 31.9603 397.742 32.7031 397.742C33.3822 397.742 33.8926 397.59 34.2344 397.284C34.5762 396.979 34.7926 396.471 34.8838 395.76H36.6064ZM42.0954 395.165H40.1677V399H38.4382V389.047H41.9382C43.0866 389.047 43.973 389.304 44.5974 389.819C45.2217 390.334 45.5339 391.079 45.5339 392.055C45.5339 392.72 45.3721 393.278 45.0486 393.729C44.7295 394.176 44.2829 394.52 43.7087 394.762L45.9441 398.911V399H44.0915L42.0954 395.165ZM40.1677 393.777H41.945C42.5284 393.777 42.9841 393.632 43.3122 393.34C43.6404 393.044 43.8044 392.64 43.8044 392.13C43.8044 391.597 43.6517 391.184 43.3464 390.893C43.0456 390.601 42.5945 390.451 41.9929 390.441H40.1677V393.777ZM53.2719 394.557H49.184V397.619H53.9623V399H47.4545V389.047H53.9145V390.441H49.184V393.189H53.2719V394.557ZM51.2143 386.333H53.1079L51.2143 388.404H49.8813L51.2143 386.333ZM55.6505 399V389.047H58.59C59.4696 389.047 60.2489 389.243 60.9279 389.635C61.6115 390.027 62.1401 390.583 62.5138 391.303C62.8875 392.023 63.0744 392.848 63.0744 393.777V394.276C63.0744 395.22 62.8852 396.049 62.507 396.765C62.1333 397.48 61.5978 398.032 60.9005 398.419C60.2078 398.806 59.4126 399 58.5148 399H55.6505ZM57.38 390.441V397.619H58.508C59.4149 397.619 60.1099 397.337 60.5929 396.771C61.0806 396.202 61.3289 395.386 61.338 394.324V393.771C61.338 392.69 61.1033 391.866 60.6339 391.296C60.1645 390.726 59.4832 390.441 58.59 390.441H57.38ZM66.9022 399H65.1796V389.047H66.9022V399ZM76.2945 390.441H73.191V399H71.4752V390.441H68.399V389.047H76.2945V390.441ZM85.639 394.283C85.639 395.258 85.4704 396.115 85.1331 396.854C84.7959 397.587 84.3128 398.152 83.6839 398.549C83.0596 398.941 82.3395 399.137 81.5238 399.137C80.7171 399.137 79.9971 398.941 79.3636 398.549C78.7347 398.152 78.2471 397.59 77.9007 396.86C77.5589 396.131 77.3857 395.29 77.3812 394.338V393.777C77.3812 392.807 77.5521 391.95 77.8939 391.207C78.2402 390.464 78.7256 389.897 79.3499 389.505C79.9788 389.108 80.6989 388.91 81.5101 388.91C82.3213 388.91 83.039 389.106 83.6634 389.498C84.2923 389.885 84.7777 390.446 85.1195 391.18C85.4613 391.909 85.6344 392.759 85.639 393.729V394.283ZM83.9095 393.764C83.9095 392.661 83.6999 391.815 83.2806 391.228C82.8659 390.64 82.2757 390.346 81.5101 390.346C80.7627 390.346 80.1771 390.64 79.7532 391.228C79.334 391.811 79.1198 392.638 79.1107 393.709V394.283C79.1107 395.377 79.3226 396.222 79.7464 396.819C80.1748 397.416 80.7672 397.715 81.5238 397.715C82.2894 397.715 82.8773 397.423 83.2874 396.84C83.7021 396.257 83.9095 395.404 83.9095 394.283V393.764Z" fill="black"/>
<path d="M29.0117 420V410.047H31.9512C32.8307 410.047 33.61 410.243 34.2891 410.635C34.9727 411.027 35.5013 411.583 35.875 412.303C36.2487 413.023 36.4355 413.848 36.4355 414.777V415.276C36.4355 416.22 36.2464 417.049 35.8682 417.765C35.4945 418.48 34.959 419.032 34.2617 419.419C33.569 419.806 32.7738 420 31.876 420H29.0117ZM30.7412 411.441V418.619H31.8691C32.776 418.619 33.471 418.337 33.9541 417.771C34.4417 417.202 34.6901 416.386 34.6992 415.324V414.771C34.6992 413.69 34.4645 412.866 33.9951 412.296C33.5257 411.726 32.8444 411.441 31.9512 411.441H30.7412ZM44.2556 415.557H40.1677V418.619H44.946V420H38.4382V410.047H44.8982V411.441H40.1677V414.189H44.2556V415.557ZM42.198 407.333H44.0915L42.198 409.404H40.865L42.198 407.333ZM46.6342 420V410.047H50.0454C51.171 410.047 52.0278 410.272 52.6157 410.724C53.2036 411.175 53.4975 411.847 53.4975 412.74C53.4975 413.196 53.3745 413.606 53.1284 413.971C52.8823 414.335 52.5222 414.618 52.0483 414.818C52.586 414.964 53.0008 415.24 53.2924 415.646C53.5886 416.047 53.7368 416.53 53.7368 417.095C53.7368 418.029 53.436 418.747 52.8344 419.248C52.2374 419.749 51.3806 420 50.2641 420H46.6342ZM48.3637 415.509V418.619H50.2846C50.8269 418.619 51.2508 418.485 51.5561 418.216C51.8614 417.947 52.0141 417.573 52.0141 417.095C52.0141 416.06 51.4855 415.532 50.4282 415.509H48.3637ZM48.3637 414.237H50.059C50.5968 414.237 51.0161 414.117 51.3168 413.875C51.6222 413.629 51.7748 413.283 51.7748 412.836C51.7748 412.344 51.6336 411.988 51.351 411.77C51.073 411.551 50.6378 411.441 50.0454 411.441H48.3637V414.237ZM57.5714 420H55.8488V410.047H57.5714V420ZM66.9638 411.441H63.8602V420H62.1444V411.441H59.0682V410.047H66.9638V411.441ZM76.3082 415.283C76.3082 416.258 76.1396 417.115 75.8023 417.854C75.4651 418.587 74.982 419.152 74.3531 419.549C73.7288 419.941 73.0087 420.137 72.193 420.137C71.3863 420.137 70.6663 419.941 70.0328 419.549C69.4039 419.152 68.9163 418.59 68.5699 417.86C68.2281 417.131 68.0549 416.29 68.0504 415.338V414.777C68.0504 413.807 68.2213 412.95 68.5631 412.207C68.9094 411.464 69.3948 410.897 70.0191 410.505C70.648 410.108 71.3681 409.91 72.1793 409.91C72.9905 409.91 73.7083 410.106 74.3326 410.498C74.9615 410.885 75.4469 411.446 75.7887 412.18C76.1305 412.909 76.3036 413.759 76.3082 414.729V415.283ZM74.5787 414.764C74.5787 413.661 74.3691 412.815 73.9498 412.228C73.5351 411.64 72.9449 411.346 72.1793 411.346C71.4319 411.346 70.8463 411.64 70.4225 412.228C70.0032 412.811 69.789 413.638 69.7799 414.709V415.283C69.7799 416.377 69.9918 417.222 70.4156 417.819C70.844 418.416 71.4365 418.715 72.193 418.715C72.9586 418.715 73.5465 418.423 73.9566 417.84C74.3714 417.257 74.5787 416.404 74.5787 415.283V414.764Z" fill="black"/>
<path d="M280.203 369.441H277.1V378H275.384V369.441H272.308V368.047H280.203V369.441ZM285.453 374.165H283.525V378H281.796V368.047H285.296C286.444 368.047 287.33 368.304 287.955 368.819C288.579 369.334 288.891 370.079 288.891 371.055C288.891 371.72 288.73 372.278 288.406 372.729C288.087 373.176 287.64 373.52 287.066 373.762L289.301 377.911V378H287.449L285.453 374.165ZM283.525 372.777H285.302C285.886 372.777 286.342 372.632 286.67 372.34C286.998 372.044 287.162 371.64 287.162 371.13C287.162 370.597 287.009 370.184 286.704 369.893C286.403 369.601 285.952 369.451 285.35 369.441H283.525V372.777ZM298.755 373.283C298.755 374.258 298.587 375.115 298.249 375.854C297.912 376.587 297.429 377.152 296.8 377.549C296.176 377.941 295.456 378.137 294.64 378.137C293.833 378.137 293.113 377.941 292.48 377.549C291.851 377.152 291.363 376.59 291.017 375.86C290.675 375.131 290.502 374.29 290.497 373.338V372.777C290.497 371.807 290.668 370.95 291.01 370.207C291.357 369.464 291.842 368.897 292.466 368.505C293.095 368.108 293.815 367.91 294.626 367.91C295.438 367.91 296.155 368.106 296.78 368.498C297.409 368.885 297.894 369.446 298.236 370.18C298.578 370.909 298.751 371.759 298.755 372.729V373.283ZM297.026 372.764C297.026 371.661 296.816 370.815 296.397 370.228C295.982 369.64 295.392 369.346 294.626 369.346C293.879 369.346 293.293 369.64 292.87 370.228C292.45 370.811 292.236 371.638 292.227 372.709V373.283C292.227 374.377 292.439 375.222 292.863 375.819C293.291 376.416 293.884 376.715 294.64 376.715C295.406 376.715 295.994 376.423 296.404 375.84C296.818 375.257 297.026 374.404 297.026 373.283V372.764ZM308.353 374.76C308.252 375.822 307.861 376.651 307.177 377.248C306.493 377.84 305.584 378.137 304.449 378.137C303.656 378.137 302.957 377.95 302.351 377.576C301.749 377.198 301.284 376.662 300.956 375.97C300.628 375.277 300.457 374.473 300.444 373.557V372.627C300.444 371.688 300.61 370.861 300.943 370.146C301.275 369.43 301.751 368.879 302.371 368.491C302.996 368.104 303.716 367.91 304.531 367.91C305.63 367.91 306.514 368.209 307.184 368.806C307.854 369.403 308.243 370.246 308.353 371.335H306.63C306.548 370.619 306.338 370.104 306.001 369.79C305.668 369.471 305.179 369.312 304.531 369.312C303.779 369.312 303.201 369.587 302.795 370.139C302.394 370.686 302.189 371.49 302.18 372.552V373.434C302.18 374.509 302.371 375.329 302.754 375.895C303.141 376.46 303.707 376.742 304.449 376.742C305.128 376.742 305.639 376.59 305.981 376.284C306.322 375.979 306.539 375.471 306.63 374.76H308.353ZM315.756 375.683H311.9L311.094 378H309.296L313.056 368.047H314.607L318.374 378H316.569L315.756 375.683ZM312.386 374.288H315.27L313.828 370.159L312.386 374.288ZM323.446 374.165H321.518V378H319.789V368.047H323.289C324.437 368.047 325.324 368.304 325.948 368.819C326.572 369.334 326.884 370.079 326.884 371.055C326.884 371.72 326.723 372.278 326.399 372.729C326.08 373.176 325.633 373.52 325.059 373.762L327.295 377.911V378H325.442L323.446 374.165ZM321.518 372.777H323.296C323.879 372.777 324.335 372.632 324.663 372.34C324.991 372.044 325.155 371.64 325.155 371.13C325.155 370.597 325.002 370.184 324.697 369.893C324.396 369.601 323.945 369.451 323.343 369.441H321.518V372.777Z" fill="black"/>
<g filter="url(#filter0_d)">
<rect x="297" y="386" width="15" height="15" rx="7.5" fill="white"/>
<path d="M304.5 386C300.358 386 297 389.358 297 393.5C297 397.642 300.358 401 304.5 401C308.642 401 312 397.642 312 393.5C311.996 389.36 308.64 386.004 304.5 386ZM304.5 399.929C300.95 399.929 298.071 397.05 298.071 393.5C298.071 389.95 300.95 387.071 304.5 387.071C308.05 387.071 310.929 389.95 310.929 393.5C310.925 397.049 308.049 399.925 304.5 399.929Z" fill="black"/>
<path d="M308.616 390.443C308.408 390.242 308.079 390.242 307.871 390.443L302.893 395.421L301.129 393.657C300.923 393.444 300.584 393.438 300.371 393.644C300.158 393.849 300.153 394.188 300.358 394.401C300.362 394.406 300.367 394.41 300.371 394.414L302.514 396.557C302.723 396.766 303.062 396.766 303.272 396.557L308.629 391.2C308.834 390.987 308.828 390.648 308.616 390.443Z" fill="black"/>
</g>
<g filter="url(#filter1_d)">
<rect x="297" y="406" width="15" height="15" rx="7.5" fill="white"/>
<path d="M304.5 406C300.358 406 297 409.358 297 413.5C297 417.642 300.358 421 304.5 421C308.642 421 312 417.642 312 413.5C311.996 409.36 308.64 406.004 304.5 406ZM304.5 419.929C300.95 419.929 298.071 417.05 298.071 413.5C298.071 409.95 300.95 407.071 304.5 407.071C308.05 407.071 310.929 409.95 310.929 413.5C310.925 417.049 308.049 419.925 304.5 419.929Z" fill="black"/>
</g>
<line x1="27" y1="318.5" x2="331.03" y2="318.5" stroke="black"/>
<path d="M34.2139 256.437C34.2139 255.999 34.0589 255.662 33.749 255.425C33.4437 255.188 32.89 254.949 32.0879 254.707C31.2858 254.465 30.6478 254.197 30.1738 253.9C29.2669 253.331 28.8135 252.588 28.8135 251.672C28.8135 250.87 29.1393 250.209 29.791 249.689C30.4473 249.17 31.2972 248.91 32.3408 248.91C33.0335 248.91 33.651 249.038 34.1934 249.293C34.7357 249.548 35.1618 249.913 35.4717 250.387C35.7816 250.856 35.9365 251.378 35.9365 251.952H34.2139C34.2139 251.433 34.0498 251.027 33.7217 250.735C33.3981 250.439 32.9333 250.291 32.3271 250.291C31.762 250.291 31.3223 250.412 31.0078 250.653C30.6979 250.895 30.543 251.232 30.543 251.665C30.543 252.03 30.7116 252.335 31.0488 252.581C31.3861 252.823 31.9421 253.06 32.7168 253.292C33.4915 253.52 34.1136 253.782 34.583 254.078C35.0524 254.37 35.3965 254.707 35.6152 255.09C35.834 255.468 35.9434 255.912 35.9434 256.423C35.9434 257.252 35.6243 257.913 34.9863 258.405C34.3529 258.893 33.4915 259.137 32.4023 259.137C31.6823 259.137 31.0192 259.005 30.4131 258.74C29.8115 258.471 29.3421 258.102 29.0049 257.633C28.6722 257.163 28.5059 256.617 28.5059 255.992H30.2354C30.2354 256.557 30.4222 256.995 30.7959 257.305C31.1696 257.615 31.7051 257.77 32.4023 257.77C33.0039 257.77 33.4551 257.649 33.7559 257.407C34.0612 257.161 34.2139 256.838 34.2139 256.437ZM45.0212 249.047V255.698C45.0212 256.756 44.6817 257.594 44.0027 258.214C43.3282 258.829 42.4281 259.137 41.3025 259.137C40.1631 259.137 39.2585 258.834 38.5886 258.228C37.9187 257.617 37.5837 256.771 37.5837 255.691V249.047H39.3064V255.705C39.3064 256.37 39.475 256.879 39.8122 257.229C40.1495 257.58 40.6462 257.756 41.3025 257.756C42.6332 257.756 43.2986 257.054 43.2986 255.65V249.047H45.0212ZM47.1537 259V249.047H50.5649C51.6905 249.047 52.5473 249.272 53.1352 249.724C53.7231 250.175 54.017 250.847 54.017 251.74C54.017 252.196 53.894 252.606 53.6479 252.971C53.4018 253.335 53.0418 253.618 52.5678 253.818C53.1056 253.964 53.5203 254.24 53.812 254.646C54.1082 255.047 54.2563 255.53 54.2563 256.095C54.2563 257.029 53.9555 257.747 53.3539 258.248C52.7569 258.749 51.9002 259 50.7836 259H47.1537ZM48.8832 254.509V257.619H50.8041C51.3465 257.619 51.7703 257.485 52.0756 257.216C52.381 256.947 52.5336 256.573 52.5336 256.095C52.5336 255.06 52.005 254.532 50.9477 254.509H48.8832ZM48.8832 253.237H50.5786C51.1163 253.237 51.5356 253.117 51.8364 252.875C52.1417 252.629 52.2944 252.283 52.2944 251.836C52.2944 251.344 52.1531 250.988 51.8705 250.77C51.5926 250.551 51.1573 250.441 50.5649 250.441H48.8832V253.237ZM63.2658 250.441H60.1623V259H58.4464V250.441H55.3703V249.047H63.2658V250.441ZM72.6102 254.283C72.6102 255.258 72.4416 256.115 72.1044 256.854C71.7671 257.587 71.2841 258.152 70.6552 258.549C70.0308 258.941 69.3108 259.137 68.495 259.137C67.6884 259.137 66.9683 258.941 66.3348 258.549C65.7059 258.152 65.2183 257.59 64.872 256.86C64.5302 256.131 64.357 255.29 64.3524 254.338V253.777C64.3524 252.807 64.5233 251.95 64.8651 251.207C65.2115 250.464 65.6968 249.897 66.3212 249.505C66.9501 249.108 67.6701 248.91 68.4813 248.91C69.2925 248.91 70.0103 249.106 70.6346 249.498C71.2636 249.885 71.7489 250.446 72.0907 251.18C72.4325 251.909 72.6057 252.759 72.6102 253.729V254.283ZM70.8807 253.764C70.8807 252.661 70.6711 251.815 70.2518 251.228C69.8371 250.64 69.247 250.346 68.4813 250.346C67.7339 250.346 67.1483 250.64 66.7245 251.228C66.3052 251.811 66.091 252.638 66.0819 253.709V254.283C66.0819 255.377 66.2938 256.222 66.7177 256.819C67.146 257.416 67.7385 257.715 68.495 257.715C69.2606 257.715 69.8485 257.423 70.2587 256.84C70.6734 256.257 70.8807 255.404 70.8807 254.283V253.764ZM81.2164 250.441H78.1129V259H76.3971V250.441H73.3209V249.047H81.2164V250.441ZM87.5599 256.683H83.7044L82.8978 259H81.0999L84.8597 249.047H86.4114L90.178 259H88.3734L87.5599 256.683ZM84.1898 255.288H87.0745L85.6321 251.159L84.1898 255.288ZM93.3223 257.619H97.8409V259H91.5928V249.047H93.3223V257.619Z" fill="black"/>
<path d="M36.6064 276.76C36.5062 277.822 36.1143 278.651 35.4307 279.248C34.7471 279.84 33.8379 280.137 32.7031 280.137C31.9102 280.137 31.2106 279.95 30.6045 279.576C30.0029 279.198 29.5381 278.662 29.21 277.97C28.8818 277.277 28.7109 276.473 28.6973 275.557V274.627C28.6973 273.688 28.8636 272.861 29.1963 272.146C29.529 271.43 30.0052 270.879 30.625 270.491C31.2493 270.104 31.9694 269.91 32.7852 269.91C33.8835 269.91 34.7676 270.209 35.4375 270.806C36.1074 271.403 36.4971 272.246 36.6064 273.335H34.8838C34.8018 272.619 34.5921 272.104 34.2549 271.79C33.9222 271.471 33.4323 271.312 32.7852 271.312C32.0332 271.312 31.4544 271.587 31.0488 272.139C30.6478 272.686 30.4427 273.49 30.4336 274.552V275.434C30.4336 276.509 30.625 277.329 31.0078 277.895C31.3952 278.46 31.9603 278.742 32.7031 278.742C33.3822 278.742 33.8926 278.59 34.2344 278.284C34.5762 277.979 34.7926 277.471 34.8838 276.76H36.6064ZM44.0095 277.683H40.154L39.3474 280H37.5495L41.3093 270.047H42.8611L46.6277 280H44.823L44.0095 277.683ZM40.6394 276.288H43.5241L42.0818 272.159L40.6394 276.288ZM53.2446 277.437C53.2446 276.999 53.0896 276.662 52.7797 276.425C52.4744 276.188 51.9207 275.949 51.1186 275.707C50.3165 275.465 49.6785 275.197 49.2045 274.9C48.2976 274.331 47.8442 273.588 47.8442 272.672C47.8442 271.87 48.17 271.209 48.8217 270.689C49.478 270.17 50.3279 269.91 51.3715 269.91C52.0642 269.91 52.6817 270.038 53.2241 270.293C53.7664 270.548 54.1925 270.913 54.5024 271.387C54.8123 271.856 54.9672 272.378 54.9672 272.952H53.2446C53.2446 272.433 53.0805 272.027 52.7524 271.735C52.4288 271.439 51.964 271.291 51.3579 271.291C50.7927 271.291 50.353 271.412 50.0385 271.653C49.7286 271.895 49.5737 272.232 49.5737 272.665C49.5737 273.03 49.7423 273.335 50.0795 273.581C50.4168 273.823 50.9728 274.06 51.7475 274.292C52.5222 274.52 53.1443 274.782 53.6137 275.078C54.0831 275.37 54.4272 275.707 54.6459 276.09C54.8647 276.468 54.9741 276.912 54.9741 277.423C54.9741 278.252 54.6551 278.913 54.017 279.405C53.3836 279.893 52.5222 280.137 51.433 280.137C50.713 280.137 50.0499 280.005 49.4438 279.74C48.8422 279.471 48.3728 279.102 48.0356 278.633C47.7029 278.163 47.5366 277.617 47.5366 276.992H49.2661C49.2661 277.557 49.4529 277.995 49.8266 278.305C50.2003 278.615 50.7358 278.77 51.433 278.77C52.0346 278.77 52.4858 278.649 52.7866 278.407C53.0919 278.161 53.2446 277.838 53.2446 277.437ZM64.674 280H62.9513V275.577H58.5011V280H56.7716V270.047H58.5011V274.189H62.9513V270.047H64.674V280ZM67.0048 280V270.047H70.4159C71.5415 270.047 72.3983 270.272 72.9862 270.724C73.5741 271.175 73.868 271.847 73.868 272.74C73.868 273.196 73.745 273.606 73.4989 273.971C73.2528 274.335 72.8928 274.618 72.4188 274.818C72.9566 274.964 73.3713 275.24 73.663 275.646C73.9592 276.047 74.1073 276.53 74.1073 277.095C74.1073 278.029 73.8065 278.747 73.205 279.248C72.608 279.749 71.7512 280 70.6346 280H67.0048ZM68.7343 275.509V278.619H70.6552C71.1975 278.619 71.6213 278.485 71.9266 278.216C72.232 277.947 72.3846 277.573 72.3846 277.095C72.3846 276.06 71.856 275.532 70.7987 275.509H68.7343ZM68.7343 274.237H70.4296C70.9673 274.237 71.3866 274.117 71.6874 273.875C71.9927 273.629 72.1454 273.283 72.1454 272.836C72.1454 272.344 72.0041 271.988 71.7216 271.77C71.4436 271.551 71.0083 271.441 70.4159 271.441H68.7343V274.237ZM81.6881 277.683H77.8326L77.026 280H75.2281L78.9879 270.047H80.5396L84.3063 280H82.5016L81.6881 277.683ZM78.318 276.288H81.2027L79.7604 272.159L78.318 276.288ZM93.1654 276.76C93.0651 277.822 92.6732 278.651 91.9896 279.248C91.306 279.84 90.3968 280.137 89.262 280.137C88.4691 280.137 87.7695 279.95 87.1634 279.576C86.5618 279.198 86.097 278.662 85.7689 277.97C85.4407 277.277 85.2698 276.473 85.2562 275.557V274.627C85.2562 273.688 85.4225 272.861 85.7552 272.146C86.0879 271.43 86.5641 270.879 87.1839 270.491C87.8083 270.104 88.5283 269.91 89.3441 269.91C90.4424 269.91 91.3265 270.209 91.9964 270.806C92.6663 271.403 93.056 272.246 93.1654 273.335H91.4427C91.3607 272.619 91.151 272.104 90.8138 271.79C90.4811 271.471 89.9912 271.312 89.3441 271.312C88.5921 271.312 88.0133 271.587 87.6077 272.139C87.2067 272.686 87.0016 273.49 86.9925 274.552V275.434C86.9925 276.509 87.1839 277.329 87.5667 277.895C87.9541 278.46 88.5192 278.742 89.262 278.742C89.9411 278.742 90.4515 278.59 90.7933 278.284C91.1351 277.979 91.3515 277.471 91.4427 276.76H93.1654ZM97.8545 275.7L96.7266 276.896V280H94.9971V270.047H96.7266V274.716L97.6836 273.533L100.596 270.047H102.688L98.9893 274.456L102.899 280H100.849L97.8545 275.7Z" fill="black"/>
<path d="M29.7412 297.302V301H28.0117V291.047H31.8193C32.9313 291.047 33.8132 291.336 34.4648 291.915C35.1211 292.494 35.4492 293.259 35.4492 294.212C35.4492 295.187 35.1279 295.946 34.4854 296.488C33.8473 297.031 32.9518 297.302 31.7988 297.302H29.7412ZM29.7412 295.914H31.8193C32.4346 295.914 32.904 295.771 33.2275 295.483C33.5511 295.192 33.7129 294.772 33.7129 294.226C33.7129 293.688 33.5488 293.259 33.2207 292.94C32.8926 292.617 32.4414 292.451 31.8672 292.441H29.7412V295.914ZM45.1902 296.283C45.1902 297.258 45.0215 298.115 44.6843 298.854C44.3471 299.587 43.864 300.152 43.2351 300.549C42.6107 300.941 41.8907 301.137 41.0749 301.137C40.2683 301.137 39.5482 300.941 38.9148 300.549C38.2859 300.152 37.7982 299.59 37.4519 298.86C37.1101 298.131 36.9369 297.29 36.9323 296.338V295.777C36.9323 294.807 37.1032 293.95 37.445 293.207C37.7914 292.464 38.2767 291.897 38.9011 291.505C39.53 291.108 40.2501 290.91 41.0612 290.91C41.8724 290.91 42.5902 291.106 43.2146 291.498C43.8435 291.885 44.3288 292.446 44.6706 293.18C45.0124 293.909 45.1856 294.759 45.1902 295.729V296.283ZM43.4607 295.764C43.4607 294.661 43.251 293.815 42.8318 293.228C42.417 292.64 41.8269 292.346 41.0612 292.346C40.3139 292.346 39.7282 292.64 39.3044 293.228C38.8851 293.811 38.671 294.638 38.6618 295.709V296.283C38.6618 297.377 38.8737 298.222 39.2976 298.819C39.726 299.416 40.3184 299.715 41.0749 299.715C41.8405 299.715 42.4284 299.423 42.8386 298.84C43.2533 298.257 43.4607 297.404 43.4607 296.283V295.764ZM55.0883 301H53.3588L48.9223 293.938V301H47.1928V291.047H48.9223L53.3725 298.136V291.047H55.0883V301ZM64.3986 292.441H61.2951V301H59.5793V292.441H56.5031V291.047H64.3986V292.441ZM73.743 296.283C73.743 297.258 73.5744 298.115 73.2372 298.854C72.8999 299.587 72.4169 300.152 71.788 300.549C71.1636 300.941 70.4436 301.137 69.6278 301.137C68.8212 301.137 68.1011 300.941 67.4677 300.549C66.8387 300.152 66.3511 299.59 66.0048 298.86C65.663 298.131 65.4898 297.29 65.4852 296.338V295.777C65.4852 294.807 65.6561 293.95 65.9979 293.207C66.3443 292.464 66.8296 291.897 67.454 291.505C68.0829 291.108 68.8029 290.91 69.6141 290.91C70.4253 290.91 71.1431 291.106 71.7675 291.498C72.3964 291.885 72.8817 292.446 73.2235 293.18C73.5653 293.909 73.7385 294.759 73.743 295.729V296.283ZM72.0136 295.764C72.0136 294.661 71.8039 293.815 71.3846 293.228C70.9699 292.64 70.3798 292.346 69.6141 292.346C68.8667 292.346 68.2811 292.64 67.8573 293.228C67.438 293.811 67.2238 294.638 67.2147 295.709V296.283C67.2147 297.377 67.4266 298.222 67.8505 298.819C68.2789 299.416 68.8713 299.715 69.6278 299.715C70.3934 299.715 70.9813 299.423 71.3915 298.84C71.8062 298.257 72.0136 297.404 72.0136 296.283V295.764ZM80.9479 298.437C80.9479 297.999 80.7929 297.662 80.483 297.425C80.1777 297.188 79.624 296.949 78.8219 296.707C78.0198 296.465 77.3818 296.197 76.9078 295.9C76.0009 295.331 75.5475 294.588 75.5475 293.672C75.5475 292.87 75.8733 292.209 76.525 291.689C77.1813 291.17 78.0312 290.91 79.0748 290.91C79.7675 290.91 80.385 291.038 80.9273 291.293C81.4697 291.548 81.8958 291.913 82.2057 292.387C82.5156 292.856 82.6705 293.378 82.6705 293.952H80.9479C80.9479 293.433 80.7838 293.027 80.4557 292.735C80.1321 292.439 79.6673 292.291 79.0611 292.291C78.496 292.291 78.0563 292.412 77.7418 292.653C77.4319 292.895 77.277 293.232 77.277 293.665C77.277 294.03 77.4456 294.335 77.7828 294.581C78.1201 294.823 78.676 295.06 79.4508 295.292C80.2255 295.52 80.8476 295.782 81.317 296.078C81.7864 296.37 82.1305 296.707 82.3492 297.09C82.568 297.468 82.6773 297.912 82.6773 298.423C82.6773 299.252 82.3583 299.913 81.7203 300.405C81.0869 300.893 80.2255 301.137 79.1363 301.137C78.4163 301.137 77.7532 301.005 77.1471 300.74C76.5455 300.471 76.0761 300.102 75.7389 299.633C75.4062 299.163 75.2398 298.617 75.2398 297.992H76.9693C76.9693 298.557 77.1562 298.995 77.5299 299.305C77.9036 299.615 78.4391 299.77 79.1363 299.77C79.7379 299.77 80.1891 299.649 80.4898 299.407C80.7952 299.161 80.9479 298.838 80.9479 298.437ZM93.8125 298.683H89.9571L89.1504 301H87.3526L91.1123 291.047H92.6641L96.4307 301H94.626L93.8125 298.683ZM90.4424 297.288H93.3272L91.8848 293.159L90.4424 297.288ZM105.29 297.76C105.19 298.822 104.798 299.651 104.114 300.248C103.43 300.84 102.521 301.137 101.386 301.137C100.594 301.137 99.894 300.95 99.2878 300.576C98.6863 300.198 98.2214 299.662 97.8933 298.97C97.5652 298.277 97.3943 297.473 97.3806 296.557V295.627C97.3806 294.688 97.547 293.861 97.8796 293.146C98.2123 292.43 98.6886 291.879 99.3084 291.491C99.9327 291.104 100.653 290.91 101.469 290.91C102.567 290.91 103.451 291.209 104.121 291.806C104.791 292.403 105.18 293.246 105.29 294.335H103.567C103.485 293.619 103.275 293.104 102.938 292.79C102.606 292.471 102.116 292.312 101.469 292.312C100.717 292.312 100.138 292.587 99.7322 293.139C99.3311 293.686 99.1261 294.49 99.117 295.552V296.434C99.117 297.509 99.3084 298.329 99.6912 298.895C100.079 299.46 100.644 299.742 101.386 299.742C102.066 299.742 102.576 299.59 102.918 299.284C103.26 298.979 103.476 298.471 103.567 297.76H105.29ZM114.402 291.047V297.698C114.402 298.756 114.062 299.594 113.383 300.214C112.709 300.829 111.809 301.137 110.683 301.137C109.544 301.137 108.639 300.834 107.969 300.228C107.299 299.617 106.964 298.771 106.964 297.691V291.047H108.687V297.705C108.687 298.37 108.856 298.879 109.193 299.229C109.53 299.58 110.027 299.756 110.683 299.756C112.014 299.756 112.679 299.054 112.679 297.65V291.047H114.402ZM118.777 291.047L121.648 298.676L124.512 291.047H126.747V301H125.025V297.719L125.196 293.33L122.256 301H121.019L118.086 293.337L118.257 297.719V301H116.534V291.047H118.777ZM136.358 291.047V297.698C136.358 298.756 136.019 299.594 135.34 300.214C134.665 300.829 133.765 301.137 132.64 301.137C131.5 301.137 130.596 300.834 129.926 300.228C129.256 299.617 128.921 298.771 128.921 297.691V291.047H130.643V297.705C130.643 298.37 130.812 298.879 131.149 299.229C131.487 299.58 131.983 299.756 132.64 299.756C133.97 299.756 134.636 299.054 134.636 297.65V291.047H136.358ZM140.22 299.619H144.739V301H138.491V291.047H140.22V299.619ZM152.053 298.683H148.198L147.391 301H145.593L149.353 291.047H150.905L154.671 301H152.867L152.053 298.683ZM148.683 297.288H151.568L150.125 293.159L148.683 297.288ZM156.086 301V291.047H159.025C159.905 291.047 160.684 291.243 161.363 291.635C162.047 292.027 162.576 292.583 162.949 293.303C163.323 294.023 163.51 294.848 163.51 295.777V296.276C163.51 297.22 163.321 298.049 162.942 298.765C162.569 299.48 162.033 300.032 161.336 300.419C160.643 300.806 159.848 301 158.95 301H156.086ZM157.816 292.441V299.619H158.943C159.85 299.619 160.545 299.337 161.028 298.771C161.516 298.202 161.764 297.386 161.774 296.324V295.771C161.774 294.69 161.539 293.866 161.069 293.296C160.6 292.726 159.919 292.441 159.025 292.441H157.816ZM173.456 296.283C173.456 297.258 173.287 298.115 172.95 298.854C172.613 299.587 172.13 300.152 171.501 300.549C170.876 300.941 170.156 301.137 169.341 301.137C168.534 301.137 167.814 300.941 167.18 300.549C166.552 300.152 166.064 299.59 165.718 298.86C165.376 298.131 165.203 297.29 165.198 296.338V295.777C165.198 294.807 165.369 293.95 165.711 293.207C166.057 292.464 166.542 291.897 167.167 291.505C167.796 291.108 168.516 290.91 169.327 290.91C170.138 290.91 170.856 291.106 171.48 291.498C172.109 291.885 172.595 292.446 172.936 293.18C173.278 293.909 173.451 294.759 173.456 295.729V296.283ZM171.726 295.764C171.726 294.661 171.517 293.815 171.097 293.228C170.683 292.64 170.093 292.346 169.327 292.346C168.58 292.346 167.994 292.64 167.57 293.228C167.151 293.811 166.937 294.638 166.928 295.709V296.283C166.928 297.377 167.139 298.222 167.563 298.819C167.992 299.416 168.584 299.715 169.341 299.715C170.106 299.715 170.694 299.423 171.104 298.84C171.519 298.257 171.726 297.404 171.726 296.283V295.764ZM180.661 298.437C180.661 297.999 180.506 297.662 180.196 297.425C179.89 297.188 179.337 296.949 178.535 296.707C177.733 296.465 177.095 296.197 176.621 295.9C175.714 295.331 175.26 294.588 175.26 293.672C175.26 292.87 175.586 292.209 176.238 291.689C176.894 291.17 177.744 290.91 178.788 290.91C179.48 290.91 180.098 291.038 180.64 291.293C181.182 291.548 181.609 291.913 181.918 292.387C182.228 292.856 182.383 293.378 182.383 293.952H180.661C180.661 293.433 180.497 293.027 180.168 292.735C179.845 292.439 179.38 292.291 178.774 292.291C178.209 292.291 177.769 292.412 177.455 292.653C177.145 292.895 176.99 293.232 176.99 293.665C176.99 294.03 177.158 294.335 177.496 294.581C177.833 294.823 178.389 295.06 179.164 295.292C179.938 295.52 180.56 295.782 181.03 296.078C181.499 296.37 181.843 296.707 182.062 297.09C182.281 297.468 182.39 297.912 182.39 298.423C182.39 299.252 182.071 299.913 181.433 300.405C180.8 300.893 179.938 301.137 178.849 301.137C178.129 301.137 177.466 301.005 176.86 300.74C176.258 300.471 175.789 300.102 175.452 299.633C175.119 299.163 174.953 298.617 174.953 297.992H176.682C176.682 298.557 176.869 298.995 177.243 299.305C177.616 299.615 178.152 299.77 178.849 299.77C179.451 299.77 179.902 299.649 180.203 299.407C180.508 299.161 180.661 298.838 180.661 298.437Z" fill="black"/>
<path d="M276.669 255.165H274.741V259H273.012V249.047H276.512C277.66 249.047 278.547 249.304 279.171 249.819C279.795 250.334 280.107 251.079 280.107 252.055C280.107 252.72 279.946 253.278 279.622 253.729C279.303 254.176 278.856 254.52 278.282 254.762L280.518 258.911V259H278.665L276.669 255.165ZM274.741 253.777H276.519C277.102 253.777 277.558 253.632 277.886 253.34C278.214 253.044 278.378 252.64 278.378 252.13C278.378 251.597 278.225 251.184 277.92 250.893C277.619 250.601 277.168 250.451 276.566 250.441H274.741V253.777ZM286.615 256.402C286.615 256.015 286.492 255.696 286.246 255.445C286 255.19 285.59 254.962 285.015 254.762C284.441 254.557 283.995 254.368 283.676 254.194C282.614 253.625 282.083 252.782 282.083 251.665C282.083 250.909 282.313 250.286 282.773 249.799C283.233 249.311 283.858 249.022 284.646 248.931V247.44H285.74V248.944C286.533 249.058 287.146 249.396 287.579 249.956C288.012 250.512 288.228 251.237 288.228 252.13H286.574C286.574 251.556 286.444 251.104 286.184 250.776C285.929 250.444 285.58 250.277 285.138 250.277C284.701 250.277 284.359 250.396 284.113 250.633C283.867 250.87 283.744 251.209 283.744 251.651C283.744 252.048 283.865 252.367 284.106 252.608C284.352 252.845 284.767 253.071 285.35 253.285C285.934 253.499 286.392 253.698 286.724 253.88C287.057 254.062 287.337 254.272 287.565 254.509C287.793 254.741 287.968 255.01 288.092 255.315C288.215 255.621 288.276 255.979 288.276 256.389C288.276 257.159 288.039 257.783 287.565 258.262C287.096 258.74 286.44 259.023 285.596 259.109V260.442H284.509V259.116C283.607 259.016 282.912 258.692 282.425 258.146C281.941 257.599 281.7 256.874 281.7 255.972H283.361C283.361 256.546 283.505 256.99 283.792 257.305C284.083 257.619 284.494 257.776 285.022 257.776C285.542 257.776 285.936 257.651 286.205 257.4C286.478 257.15 286.615 256.817 286.615 256.402ZM294.497 259H292.842V251.009L290.402 251.843V250.441L294.285 249.013H294.497V259ZM298.68 254.064L299.22 249.047H304.566V250.482H300.601L300.327 252.861C300.788 252.597 301.307 252.465 301.886 252.465C302.834 252.465 303.57 252.768 304.094 253.374C304.623 253.98 304.887 254.796 304.887 255.821C304.887 256.833 304.595 257.64 304.012 258.241C303.429 258.838 302.629 259.137 301.612 259.137C300.701 259.137 299.944 258.879 299.343 258.364C298.746 257.845 298.422 257.161 298.372 256.313H299.979C300.042 256.797 300.216 257.168 300.498 257.428C300.781 257.683 301.15 257.811 301.606 257.811C302.116 257.811 302.513 257.628 302.795 257.264C303.082 256.899 303.226 256.402 303.226 255.773C303.226 255.167 303.069 254.689 302.754 254.338C302.44 253.982 302.007 253.805 301.455 253.805C301.154 253.805 300.899 253.846 300.69 253.928C300.48 254.005 300.252 254.16 300.006 254.393L298.68 254.064ZM312.96 254.81C312.96 256.241 312.691 257.321 312.153 258.05C311.62 258.774 310.807 259.137 309.713 259.137C308.637 259.137 307.826 258.784 307.279 258.077C306.737 257.366 306.459 256.316 306.445 254.926V253.203C306.445 251.772 306.712 250.699 307.245 249.983C307.783 249.268 308.601 248.91 309.699 248.91C310.788 248.91 311.599 249.259 312.133 249.956C312.67 250.653 312.946 251.697 312.96 253.087V254.81ZM311.299 252.95C311.299 252.016 311.171 251.332 310.916 250.899C310.661 250.462 310.255 250.243 309.699 250.243C309.157 250.243 308.758 250.451 308.503 250.865C308.248 251.275 308.113 251.918 308.099 252.793V255.049C308.099 255.979 308.229 256.671 308.489 257.127C308.749 257.583 309.157 257.811 309.713 257.811C310.246 257.811 310.64 257.601 310.895 257.182C311.151 256.758 311.285 256.097 311.299 255.199V252.95ZM315.051 261.242L314.156 260.709C314.42 260.294 314.6 259.932 314.696 259.622C314.796 259.317 314.849 259.005 314.853 258.686V257.394H316.35L316.343 258.59C316.339 259.073 316.216 259.556 315.974 260.039C315.737 260.527 315.43 260.928 315.051 261.242ZM324.553 254.81C324.553 256.241 324.284 257.321 323.746 258.05C323.213 258.774 322.4 259.137 321.306 259.137C320.23 259.137 319.419 258.784 318.872 258.077C318.33 257.366 318.052 256.316 318.038 254.926V253.203C318.038 251.772 318.305 250.699 318.838 249.983C319.376 249.268 320.194 248.91 321.292 248.91C322.381 248.91 323.193 249.259 323.726 249.956C324.264 250.653 324.539 251.697 324.553 253.087V254.81ZM322.892 252.95C322.892 252.016 322.764 251.332 322.509 250.899C322.254 250.462 321.848 250.243 321.292 250.243C320.75 250.243 320.351 250.451 320.096 250.865C319.841 251.275 319.706 251.918 319.693 252.793V255.049C319.693 255.979 319.823 256.671 320.082 257.127C320.342 257.583 320.75 257.811 321.306 257.811C321.839 257.811 322.233 257.601 322.489 257.182C322.744 256.758 322.878 256.097 322.892 255.199V252.95ZM332.79 254.81C332.79 256.241 332.521 257.321 331.983 258.05C331.45 258.774 330.637 259.137 329.543 259.137C328.467 259.137 327.656 258.784 327.109 258.077C326.567 257.366 326.289 256.316 326.275 254.926V253.203C326.275 251.772 326.542 250.699 327.075 249.983C327.613 249.268 328.431 248.91 329.529 248.91C330.619 248.91 331.43 249.259 331.963 249.956C332.501 250.653 332.776 251.697 332.79 253.087V254.81ZM331.129 252.95C331.129 252.016 331.001 251.332 330.746 250.899C330.491 250.462 330.085 250.243 329.529 250.243C328.987 250.243 328.588 250.451 328.333 250.865C328.078 251.275 327.943 251.918 327.93 252.793V255.049C327.93 255.979 328.06 256.671 328.319 257.127C328.579 257.583 328.987 257.811 329.543 257.811C330.076 257.811 330.47 257.601 330.726 257.182C330.981 256.758 331.115 256.097 331.129 255.199V252.95Z" fill="black"/>
<path d="M284.669 276.165H282.741V280H281.012V270.047H284.512C285.66 270.047 286.547 270.304 287.171 270.819C287.795 271.334 288.107 272.079 288.107 273.055C288.107 273.72 287.946 274.278 287.622 274.729C287.303 275.176 286.856 275.52 286.282 275.762L288.518 279.911V280H286.665L284.669 276.165ZM282.741 274.777H284.519C285.102 274.777 285.558 274.632 285.886 274.34C286.214 274.044 286.378 273.64 286.378 273.13C286.378 272.597 286.225 272.184 285.92 271.893C285.619 271.601 285.168 271.451 284.566 271.441H282.741V274.777ZM294.615 277.402C294.615 277.015 294.492 276.696 294.246 276.445C294 276.19 293.59 275.962 293.015 275.762C292.441 275.557 291.995 275.368 291.676 275.194C290.614 274.625 290.083 273.782 290.083 272.665C290.083 271.909 290.313 271.286 290.773 270.799C291.233 270.311 291.858 270.022 292.646 269.931V268.44H293.74V269.944C294.533 270.058 295.146 270.396 295.579 270.956C296.012 271.512 296.228 272.237 296.228 273.13H294.574C294.574 272.556 294.444 272.104 294.184 271.776C293.929 271.444 293.58 271.277 293.138 271.277C292.701 271.277 292.359 271.396 292.113 271.633C291.867 271.87 291.744 272.209 291.744 272.651C291.744 273.048 291.865 273.367 292.106 273.608C292.352 273.845 292.767 274.071 293.35 274.285C293.934 274.499 294.392 274.698 294.724 274.88C295.057 275.062 295.337 275.272 295.565 275.509C295.793 275.741 295.968 276.01 296.092 276.315C296.215 276.621 296.276 276.979 296.276 277.389C296.276 278.159 296.039 278.783 295.565 279.262C295.096 279.74 294.44 280.023 293.596 280.109V281.442H292.509V280.116C291.607 280.016 290.912 279.692 290.425 279.146C289.941 278.599 289.7 277.874 289.7 276.972H291.361C291.361 277.546 291.505 277.99 291.792 278.305C292.083 278.619 292.494 278.776 293.022 278.776C293.542 278.776 293.936 278.651 294.205 278.4C294.478 278.15 294.615 277.817 294.615 277.402ZM304.691 280H297.998V278.858L301.314 275.242C301.792 274.709 302.132 274.265 302.332 273.909C302.538 273.549 302.64 273.189 302.64 272.829C302.64 272.355 302.506 271.972 302.237 271.681C301.972 271.389 301.615 271.243 301.164 271.243C300.626 271.243 300.209 271.407 299.913 271.735C299.616 272.063 299.468 272.512 299.468 273.082H297.807C297.807 272.476 297.944 271.931 298.217 271.448C298.495 270.961 298.889 270.582 299.4 270.313C299.915 270.045 300.507 269.91 301.177 269.91C302.143 269.91 302.904 270.154 303.46 270.642C304.021 271.125 304.301 271.795 304.301 272.651C304.301 273.148 304.16 273.67 303.877 274.217C303.599 274.759 303.141 275.377 302.503 276.069L300.07 278.674H304.691V280ZM312.723 275.81C312.723 277.241 312.454 278.321 311.916 279.05C311.383 279.774 310.569 280.137 309.476 280.137C308.4 280.137 307.589 279.784 307.042 279.077C306.5 278.366 306.222 277.316 306.208 275.926V274.203C306.208 272.772 306.475 271.699 307.008 270.983C307.546 270.268 308.364 269.91 309.462 269.91C310.551 269.91 311.362 270.259 311.896 270.956C312.433 271.653 312.709 272.697 312.723 274.087V275.81ZM311.062 273.95C311.062 273.016 310.934 272.332 310.679 271.899C310.424 271.462 310.018 271.243 309.462 271.243C308.92 271.243 308.521 271.451 308.266 271.865C308.011 272.275 307.876 272.918 307.862 273.793V276.049C307.862 276.979 307.992 277.671 308.252 278.127C308.512 278.583 308.92 278.811 309.476 278.811C310.009 278.811 310.403 278.601 310.658 278.182C310.914 277.758 311.048 277.097 311.062 276.199V273.95ZM314.814 282.242L313.919 281.709C314.183 281.294 314.363 280.932 314.459 280.622C314.559 280.317 314.612 280.005 314.616 279.686V278.394H316.113L316.106 279.59C316.102 280.073 315.979 280.556 315.737 281.039C315.5 281.527 315.193 281.928 314.814 282.242ZM324.316 275.81C324.316 277.241 324.047 278.321 323.509 279.05C322.976 279.774 322.163 280.137 321.069 280.137C319.993 280.137 319.182 279.784 318.635 279.077C318.093 278.366 317.815 277.316 317.801 275.926V274.203C317.801 272.772 318.068 271.699 318.601 270.983C319.139 270.268 319.957 269.91 321.055 269.91C322.144 269.91 322.956 270.259 323.489 270.956C324.027 271.653 324.302 272.697 324.316 274.087V275.81ZM322.655 273.95C322.655 273.016 322.527 272.332 322.272 271.899C322.017 271.462 321.611 271.243 321.055 271.243C320.513 271.243 320.114 271.451 319.859 271.865C319.604 272.275 319.469 272.918 319.456 273.793V276.049C319.456 276.979 319.586 277.671 319.845 278.127C320.105 278.583 320.513 278.811 321.069 278.811C321.602 278.811 321.996 278.601 322.252 278.182C322.507 277.758 322.641 277.097 322.655 276.199V273.95ZM332.553 275.81C332.553 277.241 332.284 278.321 331.746 279.05C331.213 279.774 330.4 280.137 329.306 280.137C328.23 280.137 327.419 279.784 326.872 279.077C326.33 278.366 326.052 277.316 326.038 275.926V274.203C326.038 272.772 326.305 271.699 326.838 270.983C327.376 270.268 328.194 269.91 329.292 269.91C330.381 269.91 331.193 270.259 331.726 270.956C332.264 271.653 332.539 272.697 332.553 274.087V275.81ZM330.892 273.95C330.892 273.016 330.764 272.332 330.509 271.899C330.254 271.462 329.848 271.243 329.292 271.243C328.75 271.243 328.351 271.451 328.096 271.865C327.841 272.275 327.706 272.918 327.693 273.793V276.049C327.693 276.979 327.823 277.671 328.082 278.127C328.342 278.583 328.75 278.811 329.306 278.811C329.839 278.811 330.233 278.601 330.489 278.182C330.744 277.758 330.878 277.097 330.892 276.199V273.95Z" fill="black"/>
<path d="M284.243 301H282.589V293.009L280.148 293.843V292.441L284.031 291.013H284.243V301ZM288.426 296.064L288.967 291.047H294.312V292.482H290.347L290.074 294.861C290.534 294.597 291.054 294.465 291.633 294.465C292.58 294.465 293.316 294.768 293.841 295.374C294.369 295.98 294.634 296.796 294.634 297.821C294.634 298.833 294.342 299.64 293.759 300.241C293.175 300.838 292.375 301.137 291.359 301.137C290.448 301.137 289.691 300.879 289.09 300.364C288.493 299.845 288.169 299.161 288.119 298.313H289.725C289.789 298.797 289.962 299.168 290.245 299.428C290.527 299.683 290.897 299.811 291.352 299.811C291.863 299.811 292.259 299.628 292.542 299.264C292.829 298.899 292.972 298.402 292.972 297.773C292.972 297.167 292.815 296.689 292.501 296.338C292.186 295.982 291.753 295.805 291.202 295.805C290.901 295.805 290.646 295.846 290.436 295.928C290.227 296.005 289.999 296.16 289.753 296.393L288.426 296.064ZM302.706 296.81C302.706 298.241 302.438 299.321 301.9 300.05C301.367 300.774 300.553 301.137 299.459 301.137C298.384 301.137 297.573 300.784 297.026 300.077C296.484 299.366 296.206 298.316 296.192 296.926V295.203C296.192 293.772 296.458 292.699 296.992 291.983C297.529 291.268 298.347 290.91 299.446 290.91C300.535 290.91 301.346 291.259 301.879 291.956C302.417 292.653 302.693 293.697 302.706 295.087V296.81ZM301.045 294.95C301.045 294.016 300.918 293.332 300.663 292.899C300.407 292.462 300.002 292.243 299.446 292.243C298.903 292.243 298.505 292.451 298.249 292.865C297.994 293.275 297.86 293.918 297.846 294.793V297.049C297.846 297.979 297.976 298.671 298.236 299.127C298.496 299.583 298.903 299.811 299.459 299.811C299.993 299.811 300.387 299.601 300.642 299.182C300.897 298.758 301.032 298.097 301.045 297.199V294.95ZM310.219 297.302V301H308.489V291.047H312.297C313.409 291.047 314.291 291.336 314.942 291.915C315.599 292.494 315.927 293.259 315.927 294.212C315.927 295.187 315.605 295.946 314.963 296.488C314.325 297.031 313.429 297.302 312.276 297.302H310.219ZM310.219 295.914H312.297C312.912 295.914 313.381 295.771 313.705 295.483C314.029 295.192 314.19 294.772 314.19 294.226C314.19 293.688 314.026 293.259 313.698 292.94C313.37 292.617 312.919 292.451 312.345 292.441H310.219V295.914ZM324.916 292.441H321.812V301H320.096V292.441H317.02V291.047H324.916V292.441ZM331.601 298.437C331.601 297.999 331.446 297.662 331.136 297.425C330.831 297.188 330.277 296.949 329.475 296.707C328.673 296.465 328.035 296.197 327.561 295.9C326.654 295.331 326.201 294.588 326.201 293.672C326.201 292.87 326.526 292.209 327.178 291.689C327.834 291.17 328.684 290.91 329.728 290.91C330.421 290.91 331.038 291.038 331.58 291.293C332.123 291.548 332.549 291.913 332.859 292.387C333.169 292.856 333.324 293.378 333.324 293.952H331.601C331.601 293.433 331.437 293.027 331.109 292.735C330.785 292.439 330.32 292.291 329.714 292.291C329.149 292.291 328.709 292.412 328.395 292.653C328.085 292.895 327.93 293.232 327.93 293.665C327.93 294.03 328.099 294.335 328.436 294.581C328.773 294.823 329.329 295.06 330.104 295.292C330.879 295.52 331.501 295.782 331.97 296.078C332.439 296.37 332.784 296.707 333.002 297.09C333.221 297.468 333.33 297.912 333.33 298.423C333.33 299.252 333.011 299.913 332.373 300.405C331.74 300.893 330.879 301.137 329.789 301.137C329.069 301.137 328.406 301.005 327.8 300.74C327.199 300.471 326.729 300.102 326.392 299.633C326.059 299.163 325.893 298.617 325.893 297.992H327.622C327.622 298.557 327.809 298.995 328.183 299.305C328.557 299.615 329.092 299.77 329.789 299.77C330.391 299.77 330.842 299.649 331.143 299.407C331.448 299.161 331.601 298.838 331.601 298.437Z" fill="black"/>
<line x1="28" y1="224.569" x2="332.03" y2="224.569" stroke="black"/>
<path d="M97.3013 208.755H94.1538V212.069H92.7949V204.249H97.7632V205.344H94.1538V207.67H97.3013V208.755ZM102.409 210.248H99.3797L98.7459 212.069H97.3333L100.287 204.249H101.507L104.466 212.069H103.048L102.409 210.248ZM99.761 209.152H102.028L100.894 205.908L99.761 209.152ZM106.937 210.984H110.487V212.069H105.578V204.249H106.937V210.984ZM116.293 205.344H113.854V212.069H112.506V205.344H110.089V204.249H116.293V205.344ZM123.635 208.363C123.635 209.129 123.502 209.802 123.237 210.382C122.972 210.959 122.593 211.403 122.099 211.714C121.608 212.022 121.042 212.176 120.401 212.176C119.768 212.176 119.202 212.022 118.704 211.714C118.21 211.403 117.827 210.961 117.555 210.388C117.286 209.815 117.15 209.154 117.147 208.406V207.965C117.147 207.203 117.281 206.53 117.549 205.946C117.822 205.362 118.203 204.916 118.693 204.609C119.188 204.297 119.753 204.141 120.391 204.141C121.028 204.141 121.592 204.295 122.083 204.603C122.577 204.907 122.958 205.348 123.227 205.924C123.495 206.497 123.631 207.165 123.635 207.928V208.363ZM122.276 207.955C122.276 207.088 122.111 206.424 121.782 205.962C121.456 205.5 120.992 205.269 120.391 205.269C119.804 205.269 119.343 205.5 119.01 205.962C118.681 206.42 118.513 207.07 118.505 207.912V208.363C118.505 209.222 118.672 209.887 119.005 210.356C119.342 210.825 119.807 211.059 120.401 211.059C121.003 211.059 121.465 210.83 121.787 210.372C122.113 209.913 122.276 209.244 122.276 208.363V207.955ZM130.929 204.249V209.475C130.929 210.305 130.662 210.964 130.128 211.451C129.598 211.935 128.891 212.176 128.007 212.176C127.112 212.176 126.401 211.938 125.874 211.462C125.348 210.982 125.085 210.318 125.085 209.469V204.249H126.438V209.48C126.438 210.003 126.571 210.402 126.836 210.678C127.101 210.954 127.491 211.091 128.007 211.091C129.052 211.091 129.575 210.54 129.575 209.437V204.249H130.929ZM139.941 210.248H136.912L136.278 212.069H134.865L137.819 204.249H139.039L141.998 212.069H140.58L139.941 210.248ZM137.293 209.152H139.56L138.426 205.908L137.293 209.152ZM144.468 210.984H148.019V212.069H143.11V204.249H144.468V210.984ZM154.931 211.054C154.648 211.423 154.256 211.702 153.755 211.892C153.254 212.081 152.684 212.176 152.047 212.176C151.392 212.176 150.812 212.028 150.307 211.731C149.802 211.433 149.411 211.009 149.136 210.458C148.864 209.903 148.722 209.256 148.711 208.519V207.906C148.711 206.725 148.994 205.803 149.56 205.14C150.126 204.474 150.915 204.141 151.929 204.141C152.799 204.141 153.49 204.356 154.002 204.786C154.514 205.215 154.822 205.835 154.926 206.644H153.594C153.443 205.702 152.897 205.232 151.956 205.232C151.347 205.232 150.883 205.452 150.564 205.892C150.249 206.329 150.086 206.972 150.076 207.82V208.422C150.076 209.267 150.253 209.924 150.607 210.393C150.966 210.859 151.461 211.091 152.095 211.091C152.79 211.091 153.284 210.934 153.578 210.619V209.088H151.966V208.057H154.931V211.054ZM162.886 208.363C162.886 209.129 162.753 209.802 162.488 210.382C162.223 210.959 161.844 211.403 161.349 211.714C160.859 212.022 160.293 212.176 159.652 212.176C159.018 212.176 158.453 212.022 157.955 211.714C157.461 211.403 157.078 210.961 156.805 210.388C156.537 209.815 156.401 209.154 156.397 208.406V207.965C156.397 207.203 156.532 206.53 156.8 205.946C157.072 205.362 157.454 204.916 157.944 204.609C158.438 204.297 159.004 204.141 159.641 204.141C160.279 204.141 160.843 204.295 161.333 204.603C161.827 204.907 162.209 205.348 162.477 205.924C162.746 206.497 162.882 207.165 162.886 207.928V208.363ZM161.527 207.955C161.527 207.088 161.362 206.424 161.033 205.962C160.707 205.5 160.243 205.269 159.641 205.269C159.054 205.269 158.594 205.5 158.261 205.962C157.932 206.42 157.763 207.07 157.756 207.912V208.363C157.756 209.222 157.923 209.887 158.256 210.356C158.592 210.825 159.058 211.059 159.652 211.059C160.254 211.059 160.716 210.83 161.038 210.372C161.364 209.913 161.527 209.244 161.527 208.363V207.955ZM165.544 209.77C165.544 209.294 165.603 208.914 165.721 208.631C165.839 208.349 166.072 208.039 166.42 207.702C166.77 207.362 166.992 207.12 167.086 206.977C167.229 206.759 167.3 206.522 167.3 206.268C167.3 205.932 167.216 205.676 167.048 205.5C166.883 205.321 166.64 205.232 166.317 205.232C166.01 205.232 165.761 205.319 165.571 205.495C165.385 205.667 165.292 205.901 165.292 206.198H163.986C163.994 205.565 164.208 205.063 164.631 204.694C165.057 204.326 165.619 204.141 166.317 204.141C167.037 204.141 167.598 204.324 167.999 204.689C168.403 205.054 168.606 205.565 168.606 206.22C168.606 206.803 168.333 207.378 167.789 207.944L167.128 208.594C166.892 208.862 166.77 209.255 166.763 209.77H165.544ZM165.453 211.441C165.453 211.229 165.519 211.059 165.651 210.93C165.784 210.798 165.963 210.732 166.189 210.732C166.418 210.732 166.599 210.8 166.731 210.936C166.864 211.068 166.93 211.236 166.93 211.441C166.93 211.637 166.865 211.802 166.736 211.935C166.607 212.067 166.425 212.133 166.189 212.133C165.952 212.133 165.77 212.067 165.641 211.935C165.515 211.802 165.453 211.637 165.453 211.441ZM177.365 210.248H174.336L173.702 212.069H172.29L175.244 204.249H176.463L179.423 212.069H178.005L177.365 210.248ZM174.717 209.152H176.984L175.851 205.908L174.717 209.152ZM180.534 212.069V204.249H182.844C183.535 204.249 184.147 204.403 184.681 204.711C185.218 205.018 185.633 205.455 185.927 206.021C186.22 206.587 186.367 207.235 186.367 207.965V208.358C186.367 209.099 186.219 209.75 185.921 210.313C185.628 210.875 185.207 211.308 184.659 211.612C184.115 211.917 183.49 212.069 182.785 212.069H180.534ZM181.893 205.344V210.984H182.779C183.492 210.984 184.038 210.762 184.417 210.318C184.801 209.87 184.996 209.229 185.003 208.395V207.96C185.003 207.111 184.818 206.463 184.45 206.016C184.081 205.568 183.545 205.344 182.844 205.344H181.893ZM189.375 212.069H188.021V204.249H189.375V212.069ZM197.232 209.523C197.154 210.357 196.846 211.009 196.309 211.478C195.771 211.944 195.057 212.176 194.166 212.176C193.542 212.176 192.993 212.03 192.517 211.736C192.044 211.439 191.679 211.018 191.421 210.474C191.163 209.929 191.029 209.297 191.018 208.578V207.847C191.018 207.11 191.149 206.46 191.41 205.898C191.672 205.335 192.046 204.902 192.533 204.598C193.023 204.293 193.589 204.141 194.23 204.141C195.093 204.141 195.788 204.376 196.314 204.845C196.84 205.314 197.146 205.976 197.232 206.832H195.879C195.814 206.27 195.65 205.865 195.385 205.618C195.123 205.368 194.738 205.242 194.23 205.242C193.639 205.242 193.184 205.459 192.866 205.892C192.551 206.322 192.389 206.954 192.382 207.788V208.481C192.382 209.326 192.533 209.971 192.833 210.415C193.138 210.859 193.582 211.081 194.166 211.081C194.699 211.081 195.1 210.961 195.369 210.721C195.637 210.481 195.807 210.082 195.879 209.523H197.232ZM200.106 212.069H198.752V204.249H200.106V212.069ZM208.237 208.363C208.237 209.129 208.105 209.802 207.84 210.382C207.575 210.959 207.195 211.403 206.701 211.714C206.211 212.022 205.645 212.176 205.004 212.176C204.37 212.176 203.804 212.022 203.307 211.714C202.813 211.403 202.429 210.961 202.157 210.388C201.889 209.815 201.753 209.154 201.749 208.406V207.965C201.749 207.203 201.883 206.53 202.152 205.946C202.424 205.362 202.805 204.916 203.296 204.609C203.79 204.297 204.356 204.141 204.993 204.141C205.631 204.141 206.195 204.295 206.685 204.603C207.179 204.907 207.561 205.348 207.829 205.924C208.098 206.497 208.234 207.165 208.237 207.928V208.363ZM206.878 207.955C206.878 207.088 206.714 206.424 206.384 205.962C206.058 205.5 205.595 205.269 204.993 205.269C204.406 205.269 203.946 205.5 203.613 205.962C203.283 206.42 203.115 207.07 203.108 207.912V208.363C203.108 209.222 203.274 209.887 203.607 210.356C203.944 210.825 204.41 211.059 205.004 211.059C205.606 211.059 206.067 210.83 206.39 210.372C206.716 209.913 206.878 209.244 206.878 208.363V207.955ZM216.014 212.069H214.656L211.17 206.521V212.069H209.811V204.249H211.17L214.666 209.818V204.249H216.014V212.069ZM222.411 208.578H219.199V210.984H222.954V212.069H217.84V204.249H222.916V205.344H219.199V207.504H222.411V208.578ZM231.617 210.248H228.588L227.954 212.069H226.541L229.495 204.249H230.715L233.674 212.069H232.256L231.617 210.248ZM228.969 209.152H231.236L230.102 205.908L228.969 209.152ZM240.662 211.054C240.379 211.423 239.987 211.702 239.485 211.892C238.984 212.081 238.415 212.176 237.777 212.176C237.122 212.176 236.542 212.028 236.037 211.731C235.532 211.433 235.142 211.009 234.866 210.458C234.594 209.903 234.453 209.256 234.442 208.519V207.906C234.442 206.725 234.725 205.803 235.29 205.14C235.856 204.474 236.646 204.141 237.659 204.141C238.529 204.141 239.22 204.356 239.732 204.786C240.244 205.215 240.552 205.835 240.656 206.644H239.324C239.174 205.702 238.628 205.232 237.686 205.232C237.077 205.232 236.614 205.452 236.295 205.892C235.98 206.329 235.817 206.972 235.806 207.82V208.422C235.806 209.267 235.983 209.924 236.338 210.393C236.696 210.859 237.192 211.091 237.826 211.091C238.52 211.091 239.014 210.934 239.308 210.619V209.088H237.697V208.057H240.662V211.054ZM248.616 208.363C248.616 209.129 248.483 209.802 248.218 210.382C247.954 210.959 247.574 211.403 247.08 211.714C246.589 212.022 246.023 212.176 245.383 212.176C244.749 212.176 244.183 212.022 243.685 211.714C243.191 211.403 242.808 210.961 242.536 210.388C242.267 209.815 242.131 209.154 242.128 208.406V207.965C242.128 207.203 242.262 206.53 242.53 205.946C242.803 205.362 243.184 204.916 243.675 204.609C244.169 204.297 244.734 204.141 245.372 204.141C246.009 204.141 246.573 204.295 247.064 204.603C247.558 204.907 247.939 205.348 248.208 205.924C248.476 206.497 248.612 207.165 248.616 207.928V208.363ZM247.257 207.955C247.257 207.088 247.092 206.424 246.763 205.962C246.437 205.5 245.973 205.269 245.372 205.269C244.785 205.269 244.324 205.5 243.991 205.962C243.662 206.42 243.494 207.07 243.487 207.912V208.363C243.487 209.222 243.653 209.887 243.986 210.356C244.323 210.825 244.788 211.059 245.383 211.059C245.984 211.059 246.446 210.83 246.768 210.372C247.094 209.913 247.257 209.244 247.257 208.363V207.955ZM253.063 209.056H251.548V212.069H250.189V204.249H252.939C253.842 204.249 254.538 204.451 255.029 204.856C255.519 205.26 255.765 205.846 255.765 206.612C255.765 207.135 255.638 207.573 255.383 207.928C255.133 208.279 254.782 208.549 254.331 208.739L256.087 211.999V212.069H254.631L253.063 209.056ZM251.548 207.965H252.945C253.403 207.965 253.761 207.851 254.019 207.622C254.277 207.389 254.406 207.072 254.406 206.671C254.406 206.252 254.286 205.928 254.046 205.699C253.81 205.47 253.455 205.352 252.982 205.344H251.548V207.965ZM261.651 210.248H258.622L257.988 212.069H256.575L259.53 204.249H260.749L263.708 212.069H262.29L261.651 210.248ZM259.003 209.152H261.27L260.137 205.908L259.003 209.152ZM266.077 209.765H264.954L264.831 204.249H266.206L266.077 209.765ZM264.793 211.451C264.793 211.247 264.859 211.079 264.992 210.946C265.124 210.81 265.305 210.742 265.534 210.742C265.763 210.742 265.944 210.81 266.077 210.946C266.209 211.079 266.275 211.247 266.275 211.451C266.275 211.648 266.211 211.813 266.082 211.945C265.953 212.078 265.771 212.144 265.534 212.144C265.298 212.144 265.115 212.078 264.986 211.945C264.857 211.813 264.793 211.648 264.793 211.451Z" fill="black"/>
<line x1="28" y1="191.569" x2="332.03" y2="191.569" stroke="black"/>
<path d="M29.3594 127.359L29.9766 121.625H36.0859V123.266H31.5547L31.2422 125.984C31.7682 125.682 32.362 125.531 33.0234 125.531C34.1068 125.531 34.9479 125.878 35.5469 126.57C36.151 127.263 36.4531 128.195 36.4531 129.367C36.4531 130.523 36.1198 131.445 35.4531 132.133C34.7865 132.815 33.8724 133.156 32.7109 133.156C31.6693 133.156 30.8047 132.862 30.1172 132.273C29.4349 131.68 29.0651 130.898 29.0078 129.93H30.8438C30.9167 130.482 31.1146 130.906 31.4375 131.203C31.7604 131.495 32.1823 131.641 32.7031 131.641C33.2865 131.641 33.7396 131.432 34.0625 131.016C34.3906 130.599 34.5547 130.031 34.5547 129.312C34.5547 128.62 34.375 128.073 34.0156 127.672C33.6562 127.266 33.1615 127.062 32.5312 127.062C32.1875 127.062 31.8958 127.109 31.6562 127.203C31.4167 127.292 31.1562 127.469 30.875 127.734L29.3594 127.359ZM42.4841 125.734L44.8747 121.625H47.1559L43.7184 127.266L47.2341 133H44.9294L42.4841 128.828L40.0309 133H37.7341L41.2575 127.266L37.8122 121.625H40.0934L42.4841 125.734ZM55.4053 133H53.4366V121.625H55.4053V133ZM66.1394 123.219H62.5925V133H60.6316V123.219H57.1159V121.625H66.1394V123.219ZM74.6078 127.922H69.9359V131.422H75.3969V133H67.9594V121.625H75.3422V123.219H69.9359V126.359H74.6078V127.922ZM79.8887 121.625L83.17 130.344L86.4434 121.625H88.9981V133H87.0294V129.25L87.2247 124.234L83.8653 133H82.4512L79.0997 124.242L79.295 129.25V133H77.3262V121.625H79.8887ZM102.333 130.352H97.9272L97.0053 133H94.9506L99.2475 121.625H101.021L105.326 133H103.263L102.333 130.352ZM98.4819 128.758H101.779L100.13 124.039L98.4819 128.758Z" fill="black"/>
<path d="M29.3594 151.359L29.9766 145.625H36.0859V147.266H31.5547L31.2422 149.984C31.7682 149.682 32.362 149.531 33.0234 149.531C34.1068 149.531 34.9479 149.878 35.5469 150.57C36.151 151.263 36.4531 152.195 36.4531 153.367C36.4531 154.523 36.1198 155.445 35.4531 156.133C34.7865 156.815 33.8724 157.156 32.7109 157.156C31.6693 157.156 30.8047 156.862 30.1172 156.273C29.4349 155.68 29.0651 154.898 29.0078 153.93H30.8438C30.9167 154.482 31.1146 154.906 31.4375 155.203C31.7604 155.495 32.1823 155.641 32.7031 155.641C33.2865 155.641 33.7396 155.432 34.0625 155.016C34.3906 154.599 34.5547 154.031 34.5547 153.312C34.5547 152.62 34.375 152.073 34.0156 151.672C33.6562 151.266 33.1615 151.062 32.5312 151.062C32.1875 151.062 31.8958 151.109 31.6562 151.203C31.4167 151.292 31.1562 151.469 30.875 151.734L29.3594 151.359ZM42.4841 149.734L44.8747 145.625H47.1559L43.7184 151.266L47.2341 157H44.9294L42.4841 152.828L40.0309 157H37.7341L41.2575 151.266L37.8122 145.625H40.0934L42.4841 149.734ZM55.4053 157H53.4366V145.625H55.4053V157ZM66.1394 147.219H62.5925V157H60.6316V147.219H57.1159V145.625H66.1394V147.219ZM74.6078 151.922H69.9359V155.422H75.3969V157H67.9594V145.625H75.3422V147.219H69.9359V150.359H74.6078V151.922ZM79.8887 145.625L83.17 154.344L86.4434 145.625H88.9981V157H87.0294V153.25L87.2247 148.234L83.8653 157H82.4512L79.0997 148.242L79.295 153.25V157H77.3262V145.625H79.8887ZM95.9662 157V145.625H99.8647C101.151 145.625 102.13 145.883 102.802 146.398C103.474 146.914 103.81 147.682 103.81 148.703C103.81 149.224 103.669 149.693 103.388 150.109C103.107 150.526 102.695 150.849 102.154 151.078C102.768 151.245 103.242 151.56 103.576 152.023C103.914 152.482 104.083 153.034 104.083 153.68C104.083 154.747 103.74 155.568 103.052 156.141C102.37 156.714 101.391 157 100.115 157H95.9662ZM97.9428 151.867V155.422H100.138C100.758 155.422 101.242 155.268 101.591 154.961C101.94 154.654 102.115 154.227 102.115 153.68C102.115 152.497 101.511 151.893 100.302 151.867H97.9428ZM97.9428 150.414H99.8803C100.495 150.414 100.974 150.276 101.318 150C101.667 149.719 101.841 149.323 101.841 148.812C101.841 148.25 101.68 147.844 101.357 147.594C101.039 147.344 100.542 147.219 99.8647 147.219H97.9428V150.414Z" fill="black"/>
<path d="M29.3594 175.359L29.9766 169.625H36.0859V171.266H31.5547L31.2422 173.984C31.7682 173.682 32.362 173.531 33.0234 173.531C34.1068 173.531 34.9479 173.878 35.5469 174.57C36.151 175.263 36.4531 176.195 36.4531 177.367C36.4531 178.523 36.1198 179.445 35.4531 180.133C34.7865 180.815 33.8724 181.156 32.7109 181.156C31.6693 181.156 30.8047 180.862 30.1172 180.273C29.4349 179.68 29.0651 178.898 29.0078 177.93H30.8438C30.9167 178.482 31.1146 178.906 31.4375 179.203C31.7604 179.495 32.1823 179.641 32.7031 179.641C33.2865 179.641 33.7396 179.432 34.0625 179.016C34.3906 178.599 34.5547 178.031 34.5547 177.312C34.5547 176.62 34.375 176.073 34.0156 175.672C33.6562 175.266 33.1615 175.062 32.5312 175.062C32.1875 175.062 31.8958 175.109 31.6562 175.203C31.4167 175.292 31.1562 175.469 30.875 175.734L29.3594 175.359ZM42.4841 173.734L44.8747 169.625H47.1559L43.7184 175.266L47.2341 181H44.9294L42.4841 176.828L40.0309 181H37.7341L41.2575 175.266L37.8122 169.625H40.0934L42.4841 173.734ZM55.4053 181H53.4366V169.625H55.4053V181ZM66.1394 171.219H62.5925V181H60.6316V171.219H57.1159V169.625H66.1394V171.219ZM74.6078 175.922H69.9359V179.422H75.3969V181H67.9594V169.625H75.3422V171.219H69.9359V174.359H74.6078V175.922ZM79.8887 169.625L83.17 178.344L86.4434 169.625H88.9981V181H87.0294V177.25L87.2247 172.234L83.8653 181H82.4512L79.0997 172.242L79.295 177.25V181H77.3262V169.625H79.8887ZM104.646 177.297C104.531 178.51 104.083 179.458 103.302 180.141C102.521 180.818 101.482 181.156 100.185 181.156C99.2787 181.156 98.4793 180.943 97.7866 180.516C97.0991 180.083 96.5678 179.471 96.1928 178.68C95.8178 177.888 95.6225 176.969 95.6069 175.922V174.859C95.6069 173.786 95.797 172.841 96.1772 172.023C96.5574 171.206 97.1017 170.576 97.81 170.133C98.5235 169.69 99.3465 169.469 100.279 169.469C101.534 169.469 102.544 169.81 103.31 170.492C104.076 171.174 104.521 172.138 104.646 173.383H102.677C102.583 172.565 102.344 171.977 101.958 171.617C101.578 171.253 101.018 171.07 100.279 171.07C99.4194 171.07 98.7579 171.385 98.2944 172.016C97.836 172.641 97.6017 173.56 97.5912 174.773V175.781C97.5912 177.01 97.81 177.948 98.2475 178.594C98.6902 179.24 99.336 179.562 100.185 179.562C100.961 179.562 101.544 179.388 101.935 179.039C102.326 178.69 102.573 178.109 102.677 177.297H104.646Z" fill="black"/>
<path d="M276.336 128.617H274.133V133H272.156V121.625H276.156C277.469 121.625 278.482 121.919 279.195 122.508C279.909 123.096 280.266 123.948 280.266 125.062C280.266 125.823 280.081 126.461 279.711 126.977C279.346 127.487 278.836 127.88 278.18 128.156L280.734 132.898V133H278.617L276.336 128.617ZM274.133 127.031H276.164C276.831 127.031 277.352 126.865 277.727 126.531C278.102 126.193 278.289 125.732 278.289 125.148C278.289 124.539 278.115 124.068 277.766 123.734C277.422 123.401 276.906 123.229 276.219 123.219H274.133V127.031ZM287.703 130.031C287.703 129.589 287.562 129.224 287.281 128.938C287 128.646 286.531 128.385 285.875 128.156C285.218 127.922 284.708 127.706 284.343 127.508C283.13 126.857 282.523 125.893 282.523 124.617C282.523 123.753 282.786 123.042 283.312 122.484C283.838 121.927 284.552 121.596 285.453 121.492V119.789H286.703V121.508C287.609 121.638 288.31 122.023 288.804 122.664C289.299 123.299 289.547 124.128 289.547 125.148H287.656C287.656 124.492 287.507 123.977 287.211 123.602C286.919 123.221 286.521 123.031 286.015 123.031C285.515 123.031 285.125 123.167 284.843 123.438C284.562 123.708 284.422 124.096 284.422 124.602C284.422 125.055 284.56 125.419 284.836 125.695C285.117 125.966 285.591 126.224 286.257 126.469C286.924 126.714 287.448 126.94 287.828 127.148C288.208 127.357 288.528 127.596 288.789 127.867C289.049 128.133 289.25 128.44 289.39 128.789C289.531 129.138 289.601 129.547 289.601 130.016C289.601 130.896 289.33 131.609 288.789 132.156C288.252 132.703 287.502 133.026 286.539 133.125V134.648H285.297V133.133C284.265 133.018 283.471 132.648 282.914 132.023C282.362 131.398 282.086 130.57 282.086 129.539H283.984C283.984 130.195 284.148 130.703 284.476 131.062C284.81 131.422 285.278 131.602 285.882 131.602C286.476 131.602 286.927 131.458 287.234 131.172C287.547 130.885 287.703 130.505 287.703 130.031ZM292.077 127.359L292.695 121.625H298.804V123.266H294.273L293.96 125.984C294.486 125.682 295.08 125.531 295.742 125.531C296.825 125.531 297.666 125.878 298.265 126.57C298.869 127.263 299.171 128.195 299.171 129.367C299.171 130.523 298.838 131.445 298.171 132.133C297.505 132.815 296.591 133.156 295.429 133.156C294.387 133.156 293.523 132.862 292.835 132.273C292.153 131.68 291.783 130.898 291.726 129.93H293.562C293.635 130.482 293.833 130.906 294.156 131.203C294.479 131.495 294.9 131.641 295.421 131.641C296.005 131.641 296.458 131.432 296.781 131.016C297.109 130.599 297.273 130.031 297.273 129.312C297.273 128.62 297.093 128.073 296.734 127.672C296.374 127.266 295.88 127.062 295.249 127.062C294.906 127.062 294.614 127.109 294.374 127.203C294.135 127.292 293.874 127.469 293.593 127.734L292.077 127.359ZM308.397 128.211C308.397 129.846 308.09 131.081 307.476 131.914C306.866 132.742 305.937 133.156 304.687 133.156C303.457 133.156 302.53 132.753 301.905 131.945C301.286 131.133 300.968 129.932 300.952 128.344V126.375C300.952 124.74 301.257 123.513 301.866 122.695C302.481 121.878 303.416 121.469 304.671 121.469C305.916 121.469 306.843 121.867 307.452 122.664C308.067 123.461 308.382 124.654 308.397 126.242V128.211ZM306.499 126.086C306.499 125.018 306.353 124.237 306.062 123.742C305.77 123.242 305.306 122.992 304.671 122.992C304.051 122.992 303.595 123.229 303.304 123.703C303.012 124.172 302.858 124.906 302.843 125.906V128.484C302.843 129.547 302.991 130.339 303.288 130.859C303.585 131.38 304.051 131.641 304.687 131.641C305.296 131.641 305.746 131.401 306.038 130.922C306.33 130.438 306.483 129.682 306.499 128.656V126.086ZM310.788 135.562L309.764 134.953C310.066 134.479 310.272 134.065 310.382 133.711C310.496 133.362 310.556 133.005 310.561 132.641V131.164H312.272L312.264 132.531C312.259 133.083 312.119 133.635 311.842 134.188C311.572 134.745 311.22 135.203 310.788 135.562ZM321.647 128.211C321.647 129.846 321.34 131.081 320.725 131.914C320.116 132.742 319.186 133.156 317.936 133.156C316.707 133.156 315.78 132.753 315.155 131.945C314.535 131.133 314.217 129.932 314.202 128.344V126.375C314.202 124.74 314.506 123.513 315.116 122.695C315.73 121.878 316.665 121.469 317.92 121.469C319.165 121.469 320.092 121.867 320.702 122.664C321.316 123.461 321.631 124.654 321.647 126.242V128.211ZM319.748 126.086C319.748 125.018 319.603 124.237 319.311 123.742C319.019 123.242 318.556 122.992 317.92 122.992C317.301 122.992 316.845 123.229 316.553 123.703C316.261 124.172 316.108 124.906 316.092 125.906V128.484C316.092 129.547 316.241 130.339 316.537 130.859C316.834 131.38 317.301 131.641 317.936 131.641C318.545 131.641 318.996 131.401 319.287 130.922C319.579 130.438 319.733 129.682 319.748 128.656V126.086ZM331.061 128.211C331.061 129.846 330.753 131.081 330.139 131.914C329.529 132.742 328.6 133.156 327.35 133.156C326.121 133.156 325.193 132.753 324.568 131.945C323.949 131.133 323.631 129.932 323.615 128.344V126.375C323.615 124.74 323.92 123.513 324.529 122.695C325.144 121.878 326.079 121.469 327.334 121.469C328.579 121.469 329.506 121.867 330.115 122.664C330.73 123.461 331.045 124.654 331.061 126.242V128.211ZM329.162 126.086C329.162 125.018 329.016 124.237 328.725 123.742C328.433 123.242 327.969 122.992 327.334 122.992C326.714 122.992 326.259 123.229 325.967 123.703C325.675 124.172 325.522 124.906 325.506 125.906V128.484C325.506 129.547 325.654 130.339 325.951 130.859C326.248 131.38 326.714 131.641 327.35 131.641C327.959 131.641 328.41 131.401 328.701 130.922C328.993 130.438 329.147 129.682 329.162 128.656V126.086Z" fill="black"/>
<path d="M276.336 152.617H274.133V157H272.156V145.625H276.156C277.469 145.625 278.482 145.919 279.195 146.508C279.909 147.096 280.266 147.948 280.266 149.062C280.266 149.823 280.081 150.461 279.711 150.977C279.346 151.487 278.836 151.88 278.18 152.156L280.734 156.898V157H278.617L276.336 152.617ZM274.133 151.031H276.164C276.831 151.031 277.352 150.865 277.727 150.531C278.102 150.193 278.289 149.732 278.289 149.148C278.289 148.539 278.115 148.068 277.766 147.734C277.422 147.401 276.906 147.229 276.219 147.219H274.133V151.031ZM287.703 154.031C287.703 153.589 287.562 153.224 287.281 152.938C287 152.646 286.531 152.385 285.875 152.156C285.218 151.922 284.708 151.706 284.343 151.508C283.13 150.857 282.523 149.893 282.523 148.617C282.523 147.753 282.786 147.042 283.312 146.484C283.838 145.927 284.552 145.596 285.453 145.492V143.789H286.703V145.508C287.609 145.638 288.31 146.023 288.804 146.664C289.299 147.299 289.547 148.128 289.547 149.148H287.656C287.656 148.492 287.507 147.977 287.211 147.602C286.919 147.221 286.521 147.031 286.015 147.031C285.515 147.031 285.125 147.167 284.843 147.438C284.562 147.708 284.422 148.096 284.422 148.602C284.422 149.055 284.56 149.419 284.836 149.695C285.117 149.966 285.591 150.224 286.257 150.469C286.924 150.714 287.448 150.94 287.828 151.148C288.208 151.357 288.528 151.596 288.789 151.867C289.049 152.133 289.25 152.44 289.39 152.789C289.531 153.138 289.601 153.547 289.601 154.016C289.601 154.896 289.33 155.609 288.789 156.156C288.252 156.703 287.502 157.026 286.539 157.125V158.648H285.297V157.133C284.265 157.018 283.471 156.648 282.914 156.023C282.362 155.398 282.086 154.57 282.086 153.539H283.984C283.984 154.195 284.148 154.703 284.476 155.062C284.81 155.422 285.278 155.602 285.882 155.602C286.476 155.602 286.927 155.458 287.234 155.172C287.547 154.885 287.703 154.505 287.703 154.031ZM292.077 151.359L292.695 145.625H298.804V147.266H294.273L293.96 149.984C294.486 149.682 295.08 149.531 295.742 149.531C296.825 149.531 297.666 149.878 298.265 150.57C298.869 151.263 299.171 152.195 299.171 153.367C299.171 154.523 298.838 155.445 298.171 156.133C297.505 156.815 296.591 157.156 295.429 157.156C294.387 157.156 293.523 156.862 292.835 156.273C292.153 155.68 291.783 154.898 291.726 153.93H293.562C293.635 154.482 293.833 154.906 294.156 155.203C294.479 155.495 294.9 155.641 295.421 155.641C296.005 155.641 296.458 155.432 296.781 155.016C297.109 154.599 297.273 154.031 297.273 153.312C297.273 152.62 297.093 152.073 296.734 151.672C296.374 151.266 295.88 151.062 295.249 151.062C294.906 151.062 294.614 151.109 294.374 151.203C294.135 151.292 293.874 151.469 293.593 151.734L292.077 151.359ZM308.397 152.211C308.397 153.846 308.09 155.081 307.476 155.914C306.866 156.742 305.937 157.156 304.687 157.156C303.457 157.156 302.53 156.753 301.905 155.945C301.286 155.133 300.968 153.932 300.952 152.344V150.375C300.952 148.74 301.257 147.513 301.866 146.695C302.481 145.878 303.416 145.469 304.671 145.469C305.916 145.469 306.843 145.867 307.452 146.664C308.067 147.461 308.382 148.654 308.397 150.242V152.211ZM306.499 150.086C306.499 149.018 306.353 148.237 306.062 147.742C305.77 147.242 305.306 146.992 304.671 146.992C304.051 146.992 303.595 147.229 303.304 147.703C303.012 148.172 302.858 148.906 302.843 149.906V152.484C302.843 153.547 302.991 154.339 303.288 154.859C303.585 155.38 304.051 155.641 304.687 155.641C305.296 155.641 305.746 155.401 306.038 154.922C306.33 154.438 306.483 153.682 306.499 152.656V150.086ZM310.788 159.562L309.764 158.953C310.066 158.479 310.272 158.065 310.382 157.711C310.496 157.362 310.556 157.005 310.561 156.641V155.164H312.272L312.264 156.531C312.259 157.083 312.119 157.635 311.842 158.188C311.572 158.745 311.22 159.203 310.788 159.562ZM321.647 152.211C321.647 153.846 321.34 155.081 320.725 155.914C320.116 156.742 319.186 157.156 317.936 157.156C316.707 157.156 315.78 156.753 315.155 155.945C314.535 155.133 314.217 153.932 314.202 152.344V150.375C314.202 148.74 314.506 147.513 315.116 146.695C315.73 145.878 316.665 145.469 317.92 145.469C319.165 145.469 320.092 145.867 320.702 146.664C321.316 147.461 321.631 148.654 321.647 150.242V152.211ZM319.748 150.086C319.748 149.018 319.603 148.237 319.311 147.742C319.019 147.242 318.556 146.992 317.92 146.992C317.301 146.992 316.845 147.229 316.553 147.703C316.261 148.172 316.108 148.906 316.092 149.906V152.484C316.092 153.547 316.241 154.339 316.537 154.859C316.834 155.38 317.301 155.641 317.936 155.641C318.545 155.641 318.996 155.401 319.287 154.922C319.579 154.438 319.733 153.682 319.748 152.656V150.086ZM331.061 152.211C331.061 153.846 330.753 155.081 330.139 155.914C329.529 156.742 328.6 157.156 327.35 157.156C326.121 157.156 325.193 156.753 324.568 155.945C323.949 155.133 323.631 153.932 323.615 152.344V150.375C323.615 148.74 323.92 147.513 324.529 146.695C325.144 145.878 326.079 145.469 327.334 145.469C328.579 145.469 329.506 145.867 330.115 146.664C330.73 147.461 331.045 148.654 331.061 150.242V152.211ZM329.162 150.086C329.162 149.018 329.016 148.237 328.725 147.742C328.433 147.242 327.969 146.992 327.334 146.992C326.714 146.992 326.259 147.229 325.967 147.703C325.675 148.172 325.522 148.906 325.506 149.906V152.484C325.506 153.547 325.654 154.339 325.951 154.859C326.248 155.38 326.714 155.641 327.35 155.641C327.959 155.641 328.41 155.401 328.701 154.922C328.993 154.438 329.147 153.682 329.162 152.656V150.086Z" fill="black"/>
<path d="M276.336 176.617H274.133V181H272.156V169.625H276.156C277.469 169.625 278.482 169.919 279.195 170.508C279.909 171.096 280.266 171.948 280.266 173.062C280.266 173.823 280.081 174.461 279.711 174.977C279.346 175.487 278.836 175.88 278.18 176.156L280.734 180.898V181H278.617L276.336 176.617ZM274.133 175.031H276.164C276.831 175.031 277.352 174.865 277.727 174.531C278.102 174.193 278.289 173.732 278.289 173.148C278.289 172.539 278.115 172.068 277.766 171.734C277.422 171.401 276.906 171.229 276.219 171.219H274.133V175.031ZM287.703 178.031C287.703 177.589 287.562 177.224 287.281 176.938C287 176.646 286.531 176.385 285.875 176.156C285.218 175.922 284.708 175.706 284.343 175.508C283.13 174.857 282.523 173.893 282.523 172.617C282.523 171.753 282.786 171.042 283.312 170.484C283.838 169.927 284.552 169.596 285.453 169.492V167.789H286.703V169.508C287.609 169.638 288.31 170.023 288.804 170.664C289.299 171.299 289.547 172.128 289.547 173.148H287.656C287.656 172.492 287.507 171.977 287.211 171.602C286.919 171.221 286.521 171.031 286.015 171.031C285.515 171.031 285.125 171.167 284.843 171.438C284.562 171.708 284.422 172.096 284.422 172.602C284.422 173.055 284.56 173.419 284.836 173.695C285.117 173.966 285.591 174.224 286.257 174.469C286.924 174.714 287.448 174.94 287.828 175.148C288.208 175.357 288.528 175.596 288.789 175.867C289.049 176.133 289.25 176.44 289.39 176.789C289.531 177.138 289.601 177.547 289.601 178.016C289.601 178.896 289.33 179.609 288.789 180.156C288.252 180.703 287.502 181.026 286.539 181.125V182.648H285.297V181.133C284.265 181.018 283.471 180.648 282.914 180.023C282.362 179.398 282.086 178.57 282.086 177.539H283.984C283.984 178.195 284.148 178.703 284.476 179.062C284.81 179.422 285.278 179.602 285.882 179.602C286.476 179.602 286.927 179.458 287.234 179.172C287.547 178.885 287.703 178.505 287.703 178.031ZM292.077 175.359L292.695 169.625H298.804V171.266H294.273L293.96 173.984C294.486 173.682 295.08 173.531 295.742 173.531C296.825 173.531 297.666 173.878 298.265 174.57C298.869 175.263 299.171 176.195 299.171 177.367C299.171 178.523 298.838 179.445 298.171 180.133C297.505 180.815 296.591 181.156 295.429 181.156C294.387 181.156 293.523 180.862 292.835 180.273C292.153 179.68 291.783 178.898 291.726 177.93H293.562C293.635 178.482 293.833 178.906 294.156 179.203C294.479 179.495 294.9 179.641 295.421 179.641C296.005 179.641 296.458 179.432 296.781 179.016C297.109 178.599 297.273 178.031 297.273 177.312C297.273 176.62 297.093 176.073 296.734 175.672C296.374 175.266 295.88 175.062 295.249 175.062C294.906 175.062 294.614 175.109 294.374 175.203C294.135 175.292 293.874 175.469 293.593 175.734L292.077 175.359ZM308.397 176.211C308.397 177.846 308.09 179.081 307.476 179.914C306.866 180.742 305.937 181.156 304.687 181.156C303.457 181.156 302.53 180.753 301.905 179.945C301.286 179.133 300.968 177.932 300.952 176.344V174.375C300.952 172.74 301.257 171.513 301.866 170.695C302.481 169.878 303.416 169.469 304.671 169.469C305.916 169.469 306.843 169.867 307.452 170.664C308.067 171.461 308.382 172.654 308.397 174.242V176.211ZM306.499 174.086C306.499 173.018 306.353 172.237 306.062 171.742C305.77 171.242 305.306 170.992 304.671 170.992C304.051 170.992 303.595 171.229 303.304 171.703C303.012 172.172 302.858 172.906 302.843 173.906V176.484C302.843 177.547 302.991 178.339 303.288 178.859C303.585 179.38 304.051 179.641 304.687 179.641C305.296 179.641 305.746 179.401 306.038 178.922C306.33 178.438 306.483 177.682 306.499 176.656V174.086ZM310.788 183.562L309.764 182.953C310.066 182.479 310.272 182.065 310.382 181.711C310.496 181.362 310.556 181.005 310.561 180.641V179.164H312.272L312.264 180.531C312.259 181.083 312.119 181.635 311.842 182.188C311.572 182.745 311.22 183.203 310.788 183.562ZM321.647 176.211C321.647 177.846 321.34 179.081 320.725 179.914C320.116 180.742 319.186 181.156 317.936 181.156C316.707 181.156 315.78 180.753 315.155 179.945C314.535 179.133 314.217 177.932 314.202 176.344V174.375C314.202 172.74 314.506 171.513 315.116 170.695C315.73 169.878 316.665 169.469 317.92 169.469C319.165 169.469 320.092 169.867 320.702 170.664C321.316 171.461 321.631 172.654 321.647 174.242V176.211ZM319.748 174.086C319.748 173.018 319.603 172.237 319.311 171.742C319.019 171.242 318.556 170.992 317.92 170.992C317.301 170.992 316.845 171.229 316.553 171.703C316.261 172.172 316.108 172.906 316.092 173.906V176.484C316.092 177.547 316.241 178.339 316.537 178.859C316.834 179.38 317.301 179.641 317.936 179.641C318.545 179.641 318.996 179.401 319.287 178.922C319.579 178.438 319.733 177.682 319.748 176.656V174.086ZM331.061 176.211C331.061 177.846 330.753 179.081 330.139 179.914C329.529 180.742 328.6 181.156 327.35 181.156C326.121 181.156 325.193 180.753 324.568 179.945C323.949 179.133 323.631 177.932 323.615 176.344V174.375C323.615 172.74 323.92 171.513 324.529 170.695C325.144 169.878 326.079 169.469 327.334 169.469C328.579 169.469 329.506 169.867 330.115 170.664C330.73 171.461 331.045 172.654 331.061 174.242V176.211ZM329.162 174.086C329.162 173.018 329.016 172.237 328.725 171.742C328.433 171.242 327.969 170.992 327.334 170.992C326.714 170.992 326.259 171.229 325.967 171.703C325.675 172.172 325.522 172.906 325.506 173.906V176.484C325.506 177.547 325.654 178.339 325.951 178.859C326.248 179.38 326.714 179.641 327.35 179.641C327.959 179.641 328.41 179.401 328.701 178.922C328.993 178.438 329.147 177.682 329.162 176.656V174.086Z" fill="black"/>
<path d="M72.5553 83H70.5058L65.2484 74.6319V83H63.1989V71.2053H65.2484L70.522 79.6058V71.2053H72.5553V83ZM84.7223 77.4105C84.7223 78.5662 84.5225 79.5815 84.1229 80.4564C83.7232 81.3258 83.1508 81.9955 82.4055 82.4653C81.6656 82.9298 80.8123 83.162 79.8457 83.162C78.8898 83.162 78.0365 82.9298 77.2858 82.4653C76.5405 81.9955 75.9627 81.3285 75.5523 80.4645C75.1472 79.6004 74.942 78.604 74.9366 77.4753V76.811C74.9366 75.6607 75.1391 74.6454 75.5442 73.7651C75.9546 72.8848 76.5297 72.2125 77.2696 71.748C78.0149 71.2782 78.8682 71.0433 79.8295 71.0433C80.7907 71.0433 81.6413 71.2755 82.3812 71.7399C83.1265 72.199 83.7016 72.8632 84.1067 73.7327C84.5117 74.5968 84.7169 75.604 84.7223 76.7543V77.4105ZM82.6728 76.7948C82.6728 75.4879 82.4244 74.4861 81.9276 73.7894C81.4361 73.0928 80.7367 72.7444 79.8295 72.7444C78.9438 72.7444 78.2498 73.0928 77.7476 73.7894C77.2507 74.4807 76.9969 75.4609 76.9861 76.73V77.4105C76.9861 78.7066 77.2372 79.7084 77.7395 80.4159C78.2471 81.1233 78.9492 81.4771 79.8457 81.4771C80.7529 81.4771 81.4496 81.1314 81.9357 80.4402C82.4271 79.7489 82.6728 78.739 82.6728 77.4105V76.7948ZM89.7526 71.2053L93.1549 80.2457L96.5491 71.2053H99.1981V83H97.1567V79.1116L97.3592 73.9109L93.8759 83H92.4096L88.9344 73.919L89.1369 79.1116V83H87.0955V71.2053H89.7526ZM108.854 77.7345H104.01V81.3636H109.672V83H101.96V71.2053H109.615V72.8578H104.01V76.1144H108.854V77.7345ZM116.136 83V71.2053H119.619C120.661 71.2053 121.585 71.4375 122.39 71.902C123.2 72.3664 123.826 73.0253 124.269 73.8785C124.712 74.7318 124.933 75.7093 124.933 76.811V77.4024C124.933 78.5203 124.709 79.5032 124.261 80.3511C123.818 81.1989 123.183 81.8524 122.357 82.3114C121.536 82.7705 120.594 83 119.53 83H116.136ZM118.185 72.8578V81.3636H119.522C120.597 81.3636 121.42 81.0288 121.993 80.3592C122.57 79.6841 122.865 78.7174 122.876 77.4591V76.8029C122.876 75.523 122.597 74.5455 122.041 73.8704C121.485 73.1954 120.678 72.8578 119.619 72.8578H118.185ZM136.719 77.4105C136.719 78.5662 136.52 79.5815 136.12 80.4564C135.72 81.3258 135.148 81.9955 134.403 82.4653C133.663 82.9298 132.81 83.162 131.843 83.162C130.887 83.162 130.034 82.9298 129.283 82.4653C128.538 81.9955 127.96 81.3285 127.549 80.4645C127.144 79.6004 126.939 78.604 126.934 77.4753V76.811C126.934 75.6607 127.136 74.6454 127.541 73.7651C127.952 72.8848 128.527 72.2125 129.267 71.748C130.012 71.2782 130.865 71.0433 131.827 71.0433C132.788 71.0433 133.638 71.2755 134.378 71.7399C135.124 72.199 135.699 72.8632 136.104 73.7327C136.509 74.5968 136.714 75.604 136.719 76.7543V77.4105ZM134.67 76.7948C134.67 75.4879 134.422 74.4861 133.925 73.7894C133.433 73.0928 132.734 72.7444 131.827 72.7444C130.941 72.7444 130.247 73.0928 129.745 73.7894C129.248 74.4807 128.994 75.4609 128.983 76.73V77.4105C128.983 78.7066 129.234 79.7084 129.737 80.4159C130.244 81.1233 130.946 81.4771 131.843 81.4771C132.75 81.4771 133.447 81.1314 133.933 80.4402C134.424 79.7489 134.67 78.739 134.67 77.4105V76.7948ZM150.45 77.7345H145.605V81.3636H151.268V83H143.556V71.2053H151.211V72.8578H145.605V76.1144H150.45V77.7345ZM159.433 79.9622C159.433 79.4438 159.249 79.0441 158.882 78.7633C158.52 78.4825 157.864 78.1989 156.914 77.9127C155.963 77.6265 155.207 77.3079 154.646 76.9568C153.571 76.2818 153.033 75.4015 153.033 74.316C153.033 73.3655 153.42 72.5824 154.192 71.9668C154.97 71.3511 155.977 71.0433 157.213 71.0433C158.034 71.0433 158.766 71.1945 159.409 71.4969C160.051 71.7993 160.556 72.2314 160.924 72.793C161.291 73.3493 161.474 73.9677 161.474 74.6481H159.433C159.433 74.0325 159.239 73.5518 158.85 73.2062C158.466 72.8551 157.916 72.6796 157.197 72.6796C156.528 72.6796 156.006 72.8227 155.634 73.109C155.267 73.3952 155.083 73.7948 155.083 74.3079C155.083 74.7399 155.283 75.1018 155.682 75.3934C156.082 75.6796 156.741 75.9604 157.659 76.2359C158.577 76.5059 159.314 76.8164 159.87 77.1675C160.427 77.5131 160.834 77.9127 161.094 78.3664C161.353 78.8146 161.483 79.3412 161.483 79.946C161.483 80.9289 161.105 81.712 160.348 82.2952C159.598 82.8731 158.577 83.162 157.286 83.162C156.433 83.162 155.647 83.0054 154.929 82.6922C154.216 82.3735 153.66 81.9361 153.26 81.3798C152.866 80.8236 152.669 80.1755 152.669 79.4357H154.718C154.718 80.1053 154.94 80.6238 155.383 80.991C155.826 81.3582 156.46 81.5419 157.286 81.5419C157.999 81.5419 158.534 81.3987 158.89 81.1125C159.252 80.8209 159.433 80.4375 159.433 79.9622ZM172.135 72.8578H168.457V83H166.424V72.8578H162.778V71.2053H172.135V72.8578ZM179.652 80.2538H175.083L174.127 83H171.997L176.452 71.2053H178.291L182.754 83H180.616L179.652 80.2538ZM175.658 78.6013H179.077L177.367 73.7084L175.658 78.6013ZM184.431 83V71.2053H188.473C189.807 71.2053 190.823 71.4726 191.519 72.0073C192.216 72.5419 192.564 73.3385 192.564 74.397C192.564 74.937 192.418 75.4231 192.127 75.8551C191.835 76.2872 191.408 76.622 190.847 76.8596C191.484 77.0324 191.976 77.3592 192.321 77.8398C192.672 78.3151 192.848 78.8875 192.848 79.5572C192.848 80.6643 192.491 81.5149 191.778 82.1089C191.071 82.703 190.056 83 188.733 83H184.431ZM186.481 77.6778V81.3636H188.757C189.399 81.3636 189.902 81.2043 190.264 80.8857C190.625 80.5671 190.806 80.1242 190.806 79.5572C190.806 78.3313 190.18 77.7048 188.927 77.6778H186.481ZM186.481 76.1711H188.49C189.127 76.1711 189.624 76.0279 189.98 75.7417C190.342 75.4501 190.523 75.0397 190.523 74.5104C190.523 73.9271 190.355 73.5059 190.021 73.2467C189.691 72.9875 189.175 72.8578 188.473 72.8578H186.481V76.1711ZM202.123 77.7345H197.279V81.3636H202.941V83H195.229V71.2053H202.884V72.8578H197.279V76.1144H202.123V77.7345ZM206.991 81.3636H212.346V83H204.942V71.2053H206.991V81.3636ZM221.143 77.7345H216.298V81.3636H221.961V83H214.249V71.2053H221.904V72.8578H216.298V76.1144H221.143V77.7345ZM232.961 79.1602C232.843 80.4186 232.378 81.4014 231.568 82.1089C230.758 82.811 229.681 83.162 228.336 83.162C227.396 83.162 226.567 82.9406 225.849 82.4978C225.136 82.0495 224.585 81.415 224.196 80.5941C223.808 79.7732 223.605 78.82 223.589 77.7345V76.6328C223.589 75.5203 223.786 74.5401 224.18 73.6922C224.574 72.8443 225.139 72.1909 225.873 71.7318C226.613 71.2728 227.466 71.0433 228.433 71.0433C229.735 71.0433 230.782 71.397 231.576 72.1045C232.37 72.8119 232.832 73.811 232.961 75.1018H230.92C230.823 74.2539 230.574 73.6436 230.175 73.271C229.781 72.8929 229.2 72.7039 228.433 72.7039C227.542 72.7039 226.856 73.0307 226.375 73.6841C225.9 74.3322 225.657 75.2854 225.646 76.5437V77.5887C225.646 78.8632 225.873 79.8353 226.327 80.505C226.786 81.1746 227.456 81.5095 228.336 81.5095C229.141 81.5095 229.745 81.3285 230.15 80.9667C230.555 80.6049 230.812 80.0027 230.92 79.1602H232.961ZM237.295 83H235.254V71.2053H237.295V83ZM242.803 71.2053L246.205 80.2457L249.6 71.2053H252.249V83H250.207V79.1116L250.41 73.9109L246.926 83H245.46L241.985 73.919L242.188 79.1116V83H240.146V71.2053H242.803ZM261.904 77.7345H257.06V81.3636H262.723V83H255.011V71.2053H262.666V72.8578H257.06V76.1144H261.904V77.7345ZM274.08 83H272.03L266.773 74.6319V83H264.723V71.2053H266.773L272.046 79.6058V71.2053H274.08V83ZM285.112 72.8578H281.435V83H279.401V72.8578H275.756V71.2053H285.112V72.8578ZM296.186 77.4105C296.186 78.5662 295.986 79.5815 295.586 80.4564C295.187 81.3258 294.614 81.9955 293.869 82.4653C293.129 82.9298 292.276 83.162 291.309 83.162C290.353 83.162 289.5 82.9298 288.749 82.4653C288.004 81.9955 287.426 81.3285 287.016 80.4645C286.611 79.6004 286.406 78.604 286.4 77.4753V76.811C286.4 75.6607 286.603 74.6454 287.008 73.7651C287.418 72.8848 287.993 72.2125 288.733 71.748C289.478 71.2782 290.332 71.0433 291.293 71.0433C292.254 71.0433 293.105 71.2755 293.845 71.7399C294.59 72.199 295.165 72.8632 295.57 73.7327C295.975 74.5968 296.18 75.604 296.186 76.7543V77.4105ZM294.136 76.7948C294.136 75.4879 293.888 74.4861 293.391 73.7894C292.9 73.0928 292.2 72.7444 291.293 72.7444C290.407 72.7444 289.713 73.0928 289.211 73.7894C288.714 74.4807 288.46 75.4609 288.45 76.73V77.4105C288.45 78.7066 288.701 79.7084 289.203 80.4159C289.711 81.1233 290.413 81.4771 291.309 81.4771C292.217 81.4771 292.913 81.1314 293.399 80.4402C293.891 79.7489 294.136 78.739 294.136 77.4105V76.7948Z" fill="black"/>
<path d="M169.252 20.5914L165.716 24.127L179.858 38.2691L194.001 24.127L190.465 20.5914L179.858 31.198L169.252 20.5914Z" fill="#B3A632"/>
<defs>
<filter id="filter0_d" x="293" y="386" width="23" height="23" filterUnits="userSpaceOnUse" color-interpolation-filters="sRGB">
<feFlood flood-opacity="0" result="BackgroundImageFix"/>
<feColorMatrix in="SourceAlpha" type="matrix" values="0 0 0 0 0 0 0 0 0 0 0 0 0 0 0 0 0 0 127 0"/>
<feOffset dy="4"/>
<feGaussianBlur stdDeviation="2"/>
<feColorMatrix type="matrix" values="0 0 0 0 0 0 0 0 0 0 0 0 0 0 0 0 0 0 0.25 0"/>
<feBlend mode="normal" in2="BackgroundImageFix" result="effect1_dropShadow"/>
<feBlend mode="normal" in="SourceGraphic" in2="effect1_dropShadow" result="shape"/>
</filter>
<filter id="filter1_d" x="293" y="406" width="23" height="23" filterUnits="userSpaceOnUse" color-interpolation-filters="sRGB">
<feFlood flood-opacity="0" result="BackgroundImageFix"/>
<feColorMatrix in="SourceAlpha" type="matrix" values="0 0 0 0 0 0 0 0 0 0 0 0 0 0 0 0 0 0 127 0"/>
<feOffset dy="4"/>
<feGaussianBlur stdDeviation="2"/>
<feColorMatrix type="matrix" values="0 0 0 0 0 0 0 0 0 0 0 0 0 0 0 0 0 0 0.25 0"/>
<feBlend mode="normal" in2="BackgroundImageFix" result="effect1_dropShadow"/>
<feBlend mode="normal" in="SourceGraphic" in2="effect1_dropShadow" result="shape"/>
</filter>
</defs>
</svg>
